<?xml version="1.0" encoding="UTF-8" standalone="no"?>
<!-- Uploaded to: SVG Repo, www.svgrepo.com, Generator: SVG Repo Mixer Tools -->

<svg
   width="24"
   height="24"
   viewBox="0 0 1.92 1.92"
   stroke-width="3"
   stroke="#000000"
   fill="none"
   version="1.1"
   id="svg1"
   sodipodi:docname="collapse-all.svg"
   inkscape:export-filename="expand-all.svg"
   inkscape:export-xdpi="96"
   inkscape:export-ydpi="96"
   xmlns:inkscape="http://www.inkscape.org/namespaces/inkscape"
   xmlns:sodipodi="http://sodipodi.sourceforge.net/DTD/sodipodi-0.dtd"
   xmlns="http://www.w3.org/2000/svg"
   xmlns:svg="http://www.w3.org/2000/svg">
  <defs
     id="defs1" />
  <sodipodi:namedview
     id="namedview1"
     pagecolor="#ffffff"
     bordercolor="#666666"
     borderopacity="1.0"
     inkscape:showpageshadow="2"
     inkscape:pageopacity="0.0"
     inkscape:pagecheckerboard="0"
     inkscape:deskcolor="#d1d1d1"
     showguides="true">
    <sodipodi:guide
       position="1.2800002,2.2399999"
       orientation="0,-1"
       id="guide2"
       inkscape:locked="false" />
    <sodipodi:guide
       position="1.2800003,0.3200017"
       orientation="0,-1"
       id="guide3"
       inkscape:locked="false" />
    <sodipodi:guide
       position="0.38643495,0.8336363"
       orientation="1,0"
       id="guide4"
       inkscape:locked="false" />
    <sodipodi:guide
       position="1.6664349,2.18625"
       orientation="1,0"
       id="guide5"
       inkscape:locked="false" />
    <sodipodi:guide
       position="0.74801007,0.96000004"
       orientation="0,-1"
       id="guide17"
       inkscape:locked="false" />
  </sodipodi:namedview>
  <path
     id="rect9"
     style="fill:#000000;fill-opacity:1;stroke:none;stroke-width:0.332598;stroke-linejoin:round;paint-order:fill markers stroke"
     d="m 0.37774535,0.54302097 c -0.0319828,0 -0.0577453,-0.0239801 -0.0577453,-0.05375 V 0.37375003 c 0,-0.02977 0.0257625,-0.05375 0.0577453,-0.05375 H 1.542255 c 0.031982,0 0.057745,0.0239801 0.057745,0.05375 v 0.11552096 c 0,0.0297699 -0.025762,0.05375 -0.057745,0.05375 z m 0.0326776,-0.0548959 h 0.0642361 c 0.0182683,0 0.0329015,-0.0137247 0.0329015,-0.0307292 v -0.0596875 c 0,-0.0170044 -0.014633,-0.0307292 -0.0329015,-0.0307292 h -0.0642361 c -0.0182683,0 -0.0329015,0.0137247 -0.0329015,0.0307292 v 0.0596875 c 0,0.0170045 0.014633,0.0307292 0.0329015,0.0307292 z"
     sodipodi:nodetypes="ssssssssssssssssss" />
  <path
     id="polyline1"
     style="color:#000000;fill:#000000;stroke:none;stroke-width:3;-inkscape-stroke:none"
     d="m 1.2977082,1.5981139 -0.30229191,-0.3019795 0.054896,-0.055 0.2085418,0.2083335 V 0.64041819 h 0.077708 V 1.449468 l 0.2085418,-0.2083336 0.054896,0.055 z"
     sodipodi:nodetypes="cccccccccc" />
  <path
     id="path22"
     style="fill:#000000;fill-opacity:1;stroke:none;stroke-width:0.332598;stroke-linejoin:round;paint-order:fill markers stroke"
     d="m 0.37374922,1.050108 c -0.0297695,0 -0.0537492,-0.02398 -0.0537492,-0.05375 V 0.88083702 c 0,-0.0297699 0.0239797,-0.05375 0.0537492,-0.05375 h 0.59233157 c 0.029769,0 0.053749,0.0239801 0.053749,0.05375 v 0.11552097 c 0,0.02977 -0.023979,0.05375 -0.053749,0.05375 z m 0.0304162,-0.054896 h 0.0597908 c 0.0170041,0 0.0306246,-0.0137247 0.0306246,-0.0307294 V 0.9047951 c 0,-0.0170044 -0.0136204,-0.0307292 -0.0306246,-0.0307292 h -0.0597908 c -0.0170041,0 -0.0306246,0.0137247 -0.0306246,0.0307292 v 0.0596875 c 0,0.0170047 0.0136204,0.0307294 0.0306246,0.0307294 z"
     sodipodi:nodetypes="ssssssssssssssssss" />
  <path
     id="path23"
     style="fill:#000000;fill-opacity:1;stroke:none;stroke-width:0.332598;stroke-linejoin:round;paint-order:fill markers stroke"
     d="m 0.37374922,1.5999999 c -0.0297695,0 -0.0537492,-0.02398 -0.0537492,-0.05375 V 1.430729 c 0,-0.02977 0.0239797,-0.05375 0.0537492,-0.05375 h 0.48071423 c 0.0297694,0 0.0537494,0.02398 0.0537494,0.05375 V 1.54625 c 0,0.02977 -0.0239793,0.05375 -0.0537494,0.05375 z m 0.0304162,-0.054896 h 0.0597908 c 0.0170041,0 0.0306246,-0.013725 0.0306246,-0.030729 v -0.059688 c 0,-0.017005 -0.0136204,-0.030729 -0.0306246,-0.030729 h -0.0597908 c -0.0170041,0 -0.0306246,0.013725 -0.0306246,0.030729 v 0.059687 c 0,0.017005 0.0136204,0.030729 0.0306246,0.03073 z"
     sodipodi:nodetypes="ssssssssssssssssss" />
</svg>
