<?xml version="1.0" encoding="UTF-8" standalone="no"?>
<!-- Uploaded to: SVG Repo, www.svgrepo.com, Generator: SVG Repo Mixer Tools -->

<svg
   width="24"
   height="24"
   viewBox="0 0 1.92 1.92"
   stroke-width="3"
   stroke="#000000"
   fill="none"
   version="1.1"
   id="svg1"
   sodipodi:docname="folder-remove.svg"
   inkscape:export-filename="folder-remove.svg"
   inkscape:export-xdpi="96"
   inkscape:export-ydpi="96"
   xmlns:inkscape="http://www.inkscape.org/namespaces/inkscape"
   xmlns:sodipodi="http://sodipodi.sourceforge.net/DTD/sodipodi-0.dtd"
   xmlns="http://www.w3.org/2000/svg"
   xmlns:svg="http://www.w3.org/2000/svg">
  <defs
     id="defs1" />
  <sodipodi:namedview
     id="namedview1"
     pagecolor="#ffffff"
     bordercolor="#666666"
     borderopacity="1.0"
     inkscape:showpageshadow="2"
     inkscape:pageopacity="0.0"
     inkscape:pagecheckerboard="0"
     inkscape:deskcolor="#d1d1d1"
     inkscape:zoom="17.545087"
     inkscape:cx="9.7463182"
     inkscape:cy="11.627187"
     inkscape:window-width="1920"
     inkscape:window-height="1017"
     inkscape:window-x="1912"
     inkscape:window-y="-8"
     inkscape:window-maximized="1"
     inkscape:current-layer="svg1"
     showguides="true">
    <sodipodi:guide
       position="2.8680394,-0.76565211"
       orientation="0,-1"
       id="guide1"
       inkscape:locked="false" />
  </sodipodi:namedview>
  <path
     style="color:#000000;fill:#000000;stroke:none;stroke-width:3;stroke-linecap:round;-inkscape-stroke:none"
     d="m 1.3350716,1.0068446 c -0.1459098,0 -0.2649283,0.1190185 -0.2649283,0.2649286 0,0.1459095 0.1190185,0.2649281 0.2649283,0.2649281 C 1.4809814,1.5367013 1.6,1.4176827 1.6,1.2717732 1.6,1.1258631 1.4809814,1.0068446 1.3350716,1.0068446 Z m 0,0.069053 c 0.1085908,0 0.1958752,0.087284 0.1958752,0.1958754 0,0.1085905 -0.087284,0.1958749 -0.1958752,0.1958749 -0.1085908,0 -0.1958752,-0.087284 -0.1958752,-0.1958749 0,-0.108591 0.087284,-0.1958754 0.1958752,-0.1958754 z"
     id="circle1" />
  <circle
     style="fill:#ff0000;stroke:none;stroke-width:0.332598;stroke-linejoin:round;paint-order:fill markers stroke"
     id="path2"
     cx="1.3350717"
     cy="1.271773"
     r="0.20661056" />
  <path
     style="color:#000000;fill:#000000;stroke:none;stroke-width:3;-inkscape-stroke:none"
     d="m 0.40056194,0.50989607 c -0.0440842,0 -0.080562,0.0364778 -0.080562,0.080562 V 1.3449619 c 0,0.044083 0.0364778,0.080562 0.080562,0.080562 H 1.1371284 V 1.3564707 H 0.40056194 c -0.006765,0 -0.0115088,-0.00476 -0.0115088,-0.011509 V 0.59045804 c 0,-0.006765 0.004743,-0.0115088 0.0115088,-0.0115088 H 0.69943239 L 0.82445632,0.72600163 H 1.4315032 c 0.00677,0 0.011509,0.004759 0.011509,0.0115088 V 1.0896992 h 0.069053 V 0.73751041 c 0,-0.0440831 -0.036478,-0.0805617 -0.080562,-0.0805617 H 0.85637539 L 0.73139646,0.50989607 Z"
     id="path1" />
  <path
     style="color:#000000;fill:#000000;stroke:none;stroke-width:3;-inkscape-stroke:none"
     d="m 1.2089238,1.2372463 v 0.069053 h 0.2520258 v -0.069053 z"
     id="line1" />
</svg>
