<?xml version="1.0" encoding="UTF-8" standalone="no"?>
<!-- Uploaded to: SVG Repo, www.svgrepo.com, Generator: SVG Repo Mixer Tools -->

<svg
   width="32"
   height="32"
   viewBox="0 0 2.56 2.56"
   stroke-width="3"
   stroke="#000000"
   fill="none"
   version="1.1"
   id="svg1"
   sodipodi:docname="folder-remove.svg"
   xmlns:inkscape="http://www.inkscape.org/namespaces/inkscape"
   xmlns:sodipodi="http://sodipodi.sourceforge.net/DTD/sodipodi-0.dtd"
   xmlns="http://www.w3.org/2000/svg"
   xmlns:svg="http://www.w3.org/2000/svg">
  <defs
     id="defs1" />
  <sodipodi:namedview
     id="namedview1"
     pagecolor="#ffffff"
     bordercolor="#666666"
     borderopacity="1.0"
     inkscape:showpageshadow="2"
     inkscape:pageopacity="0.0"
     inkscape:pagecheckerboard="0"
     inkscape:deskcolor="#d1d1d1" />
  <path
     style="color:#000000;fill:#000000;stroke:none;stroke-width:3;stroke-linecap:round;-inkscape-stroke:none"
     d="m 1.8426074,1.2553189 c -0.2188646,0 -0.3973925,0.1785277 -0.3973925,0.3973929 0,0.2188643 0.1785279,0.3973921 0.3973925,0.3973921 C 2.0614721,2.0501039 2.24,1.8715761 2.24,1.6527118 2.24,1.4338466 2.0614721,1.2553189 1.8426074,1.2553189 Z m 0,0.1035798 c 0.1628862,0 0.2938129,0.1309265 0.2938129,0.2938131 0,0.1628858 -0.1309267,0.2938124 -0.2938129,0.2938124 -0.1628861,0 -0.2938128,-0.1309266 -0.2938128,-0.2938124 0,-0.1628866 0.1309267,-0.2938131 0.2938128,-0.2938131 z"
     id="circle1" />
  <circle
     style="fill:#ff0000;stroke:none;stroke-width:0.332598;stroke-linejoin:round;paint-order:fill markers stroke"
     id="path2"
     cx="1.8426075"
     cy="1.6527114"
     r="0.30991584" />
  <path
     style="color:#000000;fill:#000000;stroke:none;stroke-width:3;-inkscape-stroke:none"
     d="m 0.44084293,0.50989607 c -0.0661263,0 -0.12084295,0.0547167 -0.12084295,0.12084296 V 1.7624949 c 0,0.066125 0.0547167,0.120843 0.12084295,0.120843 H 1.5456927 V 1.7797581 H 0.44084293 c -0.0101477,0 -0.0172632,-0.00714 -0.0172632,-0.017263 V 0.63073903 c 0,-0.0101477 0.007115,-0.0172632 0.0172632,-0.0172632 H 0.88914861 L 1.0766845,0.83405442 h 0.9105704 c 0.010148,0 0.017263,0.007139 0.017263,0.0172632 V 1.3796008 H 2.1080977 V 0.85131758 c 0,-0.0661247 -0.054717,-0.12084255 -0.120843,-0.12084255 H 1.1245631 L 0.93709471,0.50989607 Z"
     id="path1" />
  <path
     style="color:#000000;fill:#000000;stroke:none;stroke-width:3;-inkscape-stroke:none"
     d="M 1.6533858,1.6009215 V 1.7045013 H 2.0314245 V 1.6009215 Z"
     id="line1" />
</svg>
