<?xml version="1.0" encoding="UTF-8" standalone="no"?>
<!-- Created with Inkscape (http://www.inkscape.org/) -->

<svg
   width="210mm"
   height="297mm"
   viewBox="0 0 210 297"
   version="1.1"
   id="svg1"
   xml:space="preserve"
   sodipodi:docname="lovasturak.svg"
   inkscape:version="1.4 (86a8ad7, 2024-10-11)"
   inkscape:export-filename="C:\Download\lovasturak\lovasturak.png"
   inkscape:export-xdpi="96"
   inkscape:export-ydpi="96"
   xmlns:inkscape="http://www.inkscape.org/namespaces/inkscape"
   xmlns:sodipodi="http://sodipodi.sourceforge.net/DTD/sodipodi-0.dtd"
   xmlns="http://www.w3.org/2000/svg"
   xmlns:svg="http://www.w3.org/2000/svg"><sodipodi:namedview
     id="namedview1"
     pagecolor="#ffffff"
     bordercolor="#666666"
     borderopacity="1.0"
     inkscape:showpageshadow="2"
     inkscape:pageopacity="0.0"
     inkscape:pagecheckerboard="0"
     inkscape:deskcolor="#d1d1d1"
     inkscape:document-units="mm"
     showguides="true"
     inkscape:zoom="4.1424077"
     inkscape:cx="200.48727"
     inkscape:cy="161.25887"
     inkscape:window-width="1920"
     inkscape:window-height="1017"
     inkscape:window-x="1912"
     inkscape:window-y="-8"
     inkscape:window-maximized="1"
     inkscape:current-layer="OBJECTS" /><defs
     id="defs1">
	
	
</defs><g
     inkscape:label="Layer 1"
     inkscape:groupmode="layer"
     id="layer1"><g
       id="OBJECTS"
       transform="matrix(0.26458333,0,0,0.26458333,35.739402,35.653437)">
	<g
   id="g84"
   transform="translate(-0.17373707,0.00229446)"><path
     id="path82"
     style="fill:#d0d2c6;fill-opacity:1;stroke:none;stroke-width:0.56693;stroke-linejoin:round;paint-order:fill markers stroke"
     d="M 68.714238,3.5061181 A 45.41803,45.833118 0 0 1 44.753332,12.085373 v 32.86801 c 0,5.228708 7.359719,21.754304 23.88575,23.377611 0.04153,0.0041 0.07516,-0.03399 0.07516,-0.0761 0,0.04211 0.03362,0.08018 0.07516,0.0761 16.526022,-1.623307 23.88574,-18.148903 23.88574,-23.377611 V 12.085373 A 45.41803,45.833118 0 0 1 68.714238,3.5061181 Z" /><path
     id="path81"
     style="fill:#222b00;fill-opacity:1;stroke:none;stroke-width:0.56693;stroke-linejoin:round;paint-order:fill markers stroke"
     d="m 68.407199,3.5061181 c -0.545476,0.00971 -1.02392,0.3038429 -1.443983,0.6107024 -2.280658,1.538507 -4.71402,2.8689608 -7.26206,3.9546771 -0.766816,0.3272783 -1.556884,0.637098 -2.333792,0.9185772 -1.81164,0.6529374 -3.668846,1.1893092 -5.555625,1.6019582 -2.228447,0.486826 -4.534293,0.804794 -6.830783,0.945327 -0.48043,0.02396 -0.965956,0.154251 -1.350864,0.439605 -0.437738,0.312835 -0.723737,0.803926 -0.783062,1.323862 -0.05535,0.438351 -0.01054,0.88074 -0.02423,1.320833 -0.0047,6.178786 8.4e-5,12.357548 -5.04e-4,18.536334 0.0025,3.837273 7.76e-4,7.674526 0.0058,11.511741 0.08636,1.752828 0.618235,3.451686 1.25623,5.084981 1.171741,2.940413 2.856048,5.681659 4.880068,8.154141 2.777509,3.368601 6.2987,6.206933 10.352164,8.053701 2.833525,1.290655 5.904755,2.108634 9.030825,2.367355 0.719908,0.02095 1.431635,-0.108177 2.141497,-0.204155 4.004878,-0.606445 7.859371,-2.104285 11.176108,-4.343055 1.687094,-1.131261 3.232708,-2.442436 4.642096,-3.878464 -0.118506,-0.03703 -0.238307,-0.0702 -0.354814,-0.113309 -0.54867,-0.211846 -1.092518,-0.459929 -1.560571,-0.821168 -3.88e-4,-2.58e-4 -6.46e-4,-7.75e-4 -0.001,-0.001 -3.782323,3.702081 -8.994419,6.755393 -15.774545,7.388995 -0.041,0.0038 -0.07419,-0.03212 -0.07419,-0.07167 0,0.03955 -0.03319,0.0755 -0.07419,0.07167 C 58.212704,65.399443 51.538143,58.912109 47.991095,53.004849 47.850905,52.801637 47.732244,52.585751 47.630225,52.361088 45.79206,49.116144 44.888121,46.112418 44.888121,44.40202 V 13.533247 A 44.836037,43.045219 0 0 0 68.541958,5.4757598 44.836037,43.045219 0 0 0 73.922702,8.6145685 C 74.194114,8.0144987 74.54057,7.4505189 74.947773,6.9326131 73.605846,6.2592472 72.297125,5.5249724 71.039277,4.7174288 70.587996,4.4329333 70.155296,4.1344082 69.707087,3.8414997 69.320146,3.6115198 68.863037,3.4876161 68.407199,3.5061181 Z m 11.14204,5.4138016 c 0.008,0.07811 0.01031,0.156724 0.02246,0.2344391 0.115747,0.6978785 0.367163,1.3604752 0.586728,2.0307122 a 44.836037,43.045219 0 0 0 0.563512,0.19179 c 0.159159,-0.0354 0.316958,-0.07568 0.444652,-0.179677 0.282695,-0.480416 0.541905,-0.975054 0.807289,-1.4659385 -0.816544,-0.2459427 -1.624178,-0.518715 -2.424641,-0.8113258 z m 7.866958,2.0678083 c -0.05229,0.667737 -0.127714,1.334043 -0.252609,1.992354 a 44.836037,43.045219 0 0 0 5.032239,0.553165 v 24.088426 c 0.05258,0.123988 0.104625,0.248347 0.156714,0.372479 0.649203,1.521518 1.295397,3.044983 1.910338,4.580773 -3.4e-5,-9.706962 0.0021,-19.413993 -0.0043,-29.120918 -0.05504,-0.794622 -0.618334,-1.564834 -1.42657,-1.797535 -0.563621,-0.161813 -1.158843,-0.121307 -1.736717,-0.193557 -0.798027,-0.06535 -1.609934,-0.155181 -2.392843,-0.261946 -0.429712,-0.05958 -0.855962,-0.14142 -1.286261,-0.213241 z" /><path
     style="fill:#22280b;stroke:none;stroke-width:1"
     d="m 69.236914,42.675283 c 0.01645,0.01162 0.01512,0.01558 -0.0043,0.01176 -0.548038,-0.104242 -1.077127,-0.307788 -1.587389,-0.610498 -0.01662,-0.01005 -0.03831,-0.0047 -0.04837,0.01194 -0.0012,0.0019 -0.0021,0.004 -0.0029,0.0061 -0.35397,0.956677 -0.679196,1.922723 -0.975685,2.898007 -0.123581,0.408074 -0.239417,0.795262 -0.347625,1.161827 -0.523923,1.776465 -0.913761,3.484749 -1.16976,5.125125 -0.310112,1.986398 -0.38982,3.982747 -0.239523,5.988809 0.08727,1.165211 0.272807,2.258192 0.556622,3.279203 0.269997,0.969124 0.681737,1.872737 1.235225,2.710969 0.254139,0.384552 0.552553,0.730612 0.895247,1.03831 0.01502,0.01377 0.01235,0.02156 -0.0078,0.02361 -0.2986,0.03119 -0.545229,0.04093 -0.739758,0.0292 -1.712361,-0.103861 -3.356991,-0.491749 -4.933885,-1.163538 -1.710988,-0.72914 -3.282982,-1.686049 -4.715725,-2.870872 -0.858864,-0.709852 -1.607189,-1.467264 -2.244856,-2.272373 -0.11797,-0.149374 -0.237133,-0.315245 -0.357225,-0.495171 -0.504929,-0.557443 -0.966109,-1.155806 -1.373873,-1.788908 -0.472523,-0.734252 -0.877892,-1.512048 -1.202206,-2.320978 -0.322764,-0.809017 -0.571903,-1.647839 -0.7028,-2.505672 0.338075,0.798312 0.68399,1.579744 1.072085,2.338203 0.337622,0.66271 0.703488,1.307771 1.096596,1.935753 -0.139645,-0.419396 -0.256595,-0.84707 -0.350713,-1.282899 -0.124134,-0.574669 -0.230963,-1.152263 -0.320874,-1.732758 -0.143722,-0.25649 -0.280928,-0.516716 -0.40592,-0.782941 -0.317644,-0.677822 -0.574423,-1.384596 -0.758938,-2.108675 -0.183088,-0.724029 -0.301901,-1.464782 -0.314317,-2.209763 0.224969,0.709486 0.446755,1.406212 0.701413,2.089294 0.193814,0.523217 0.402711,1.038588 0.628369,1.546019 -0.01343,-0.257032 -0.02249,-0.514441 -0.02214,-0.772643 5.17e-4,-0.435508 0.01399,-0.870202 0.03579,-1.304461 -0.0941,-0.266944 -0.182498,-0.535895 -0.258684,-0.808645 -0.2119,-0.759665 -0.35452,-1.539053 -0.418752,-2.323671 -0.06266,-0.784317 -0.05462,-1.574721 0.06363,-2.35016 0.09722,0.777567 0.198209,1.541719 0.338305,2.29718 0.108522,0.591474 0.237035,1.177153 0.386317,1.757123 0.01217,-0.116128 0.02226,-0.232399 0.03599,-0.348487 0.06621,-0.561408 0.156484,-1.157183 0.270117,-1.785992 -0.197191,-0.878914 -0.317729,-1.775384 -0.352452,-2.673879 -0.03366,-0.907097 0.01222,-1.817417 0.176145,-2.706877 0.05124,0.902217 0.115602,1.791652 0.22796,2.673962 0.05852,0.465286 0.128934,0.928086 0.210598,1.388435 0.0818,-0.378007 0.174639,-0.762334 0.27924,-1.153672 0.05675,-0.213005 0.116391,-0.425267 0.175645,-0.637508 -0.04367,-0.306303 -0.07977,-0.613813 -0.101699,-0.922516 -0.05582,-0.789236 -0.04167,-1.583739 0.04887,-2.368475 0.09188,-0.784036 0.252513,-1.560458 0.516715,-2.302127 -0.05313,0.784812 -0.101807,1.557076 -0.112208,2.328719 -0.0099,0.645051 0.0033,1.288008 0.03957,1.929526 0.161207,-0.524873 0.328996,-1.047791 0.506005,-1.567866 7.75e-4,-0.0028 0.03078,-0.102951 0.08951,-0.299244 -0.02044,-0.391871 -0.02167,-0.784834 -0.0036,-1.176953 0.03731,-0.805914 0.154402,-1.608594 0.355099,-2.388328 0.201911,-0.778895 0.480634,-1.538342 0.86507,-2.241156 -0.182883,0.778981 -0.348984,1.548079 -0.468026,2.323174 -0.120391,0.774137 -0.200521,1.550776 -0.236004,2.329668 0.14925,-0.236376 0.234107,-0.376045 0.254345,-0.418478 0.129049,-0.268489 0.224792,-0.549191 0.287221,-0.842236 0.06365,-0.301141 0.0958,-0.452828 0.09646,-0.454936 0.522816,-2.110421 1.222187,-4.160987 2.098509,-6.151588 0.189606,-0.43046 0.405715,-0.847673 0.648317,-1.251895 0.05936,-0.09862 0.04287,-0.113343 -0.04935,-0.04405 -0.08315,0.0627 -0.162867,0.149277 -0.238767,0.259836 -0.122021,0.178017 -0.184672,0.268929 -0.187692,0.272724 -0.30249,0.397919 -0.604443,0.796194 -0.905728,1.194819 -0.272286,0.360096 -0.50627,0.69045 -0.702084,0.991072 -0.431925,0.661897 -0.804678,1.283293 -1.118382,1.864321 -0.350344,0.649112 -0.770487,1.495662 -1.260696,2.539538 -1.007625,2.146497 -1.773043,4.376299 -2.295994,6.689392 -0.392991,1.739393 -0.676375,3.250745 -0.850028,4.534048 -0.12502,0.925038 -0.209707,1.853868 -0.254059,2.786491 -0.0029,0.05685 -0.01662,0.08118 -0.04142,0.07288 -0.01532,-0.0055 -0.0261,-0.02427 -0.02701,-0.04713 -0.06365,-1.877299 0.0065,-3.748088 0.210294,-5.612494 0.04121,-0.374924 0.09439,-0.776282 0.159645,-1.204081 0.238115,-1.561064 0.527555,-3.061501 0.868336,-4.501051 0.223287,-0.944856 0.515753,-1.927158 0.877386,-2.947166 0.599325,-1.690676 1.402812,-3.341309 2.410468,-4.951772 0.460923,-0.736923 0.85252,-1.322764 1.174926,-1.757402 0.905244,-1.221578 1.877627,-2.386664 2.917143,-3.495384 0.87088,-0.928833 1.871575,-1.843815 3.002348,-2.744831 0.269174,-0.214326 0.504777,-0.395429 0.706821,-0.543048 0.130102,-0.095 0.373566,-0.265292 0.730642,-0.511012 2.134062,-1.467243 4.444192,-2.577854 6.930531,-3.33171 0.444006,-0.134702 0.895373,-0.246915 1.354099,-0.336639 0.03928,-0.0079 0.04912,0.0057 0.02963,0.04089 -0.14481,0.257607 -0.320067,0.500895 -0.526032,0.72988 -0.193775,0.215739 -0.378726,0.438742 -0.55499,0.668886 -0.567789,0.739758 -0.859851,1.578775 -0.876317,2.517061 -0.0064,0.385505 0.05867,0.755038 0.195482,1.108593 0.06075,0.155861 0.132294,0.276294 0.214504,0.36118 0.105592,0.109182 0.229403,0.183681 0.371553,0.223362 0.05759,0.01588 0.09137,0.07518 0.07559,0.132369 -3.88e-4,0.001 -6.46e-4,0.0021 -0.001,0.0033 -0.161151,0.516716 -0.4111,0.978428 -0.749609,1.384733 -0.06266,0.07487 -0.176795,0.147866 -0.342168,0.21886 -0.704982,0.301974 -1.355489,0.644854 -1.951654,1.028521 -0.206865,0.133398 -0.474649,0.312963 -0.803219,0.538817 -0.306799,0.210382 -0.565919,0.401231 -0.77761,0.572692 -1.214704,0.984079 -2.24176,2.118491 -3.081047,3.403103 -1.269718,1.943189 -2.242946,4.043602 -2.919572,6.300975 -0.111414,0.371665 -0.222345,0.760903 -0.332668,1.167707 -0.14043,0.519293 -0.258845,1.018311 -0.355224,1.497442 -0.130046,0.645143 -0.233619,1.154836 -0.310856,1.52896 -0.266297,1.292706 -0.457856,2.595661 -0.574665,3.909125 -0.0417,0.471107 -0.073,0.874848 -0.09362,1.211331 -0.07048,1.165242 -0.05527,2.392394 0.04552,3.681722 0.05238,0.671664 0.118331,1.215343 0.197832,1.630778 0.375097,1.962883 0.993632,3.90314 1.855848,5.820498 0.379146,0.842439 0.787343,1.58798 1.22472,2.236613 0.624744,0.9262 1.331075,1.784999 2.119241,2.576256 0.522347,0.524617 1.089022,0.995727 1.699772,1.413475 0.01938,0.01314 0.02133,0.01096 0.0057,-0.0064 -0.575083,-0.653366 -1.13771,-1.317535 -1.687757,-1.99264 -0.728262,-0.894049 -1.334419,-1.864399 -1.818365,-2.911444 -0.955983,-2.069013 -1.679246,-4.132867 -2.170029,-6.191288 -0.27418,-1.152136 -0.480722,-2.4418 -0.619253,-3.869271 -0.314787,-3.236643 -0.0498,-6.448235 0.794975,-9.634647 0.265539,-1.000704 0.581151,-1.921813 0.946975,-2.763209 0.950283,-2.185429 2.202664,-4.180952 3.757134,-5.986699 0.541952,-0.62958 1.112188,-1.232814 1.710709,-1.8097 0.282213,-0.271882 0.623404,-0.56717 1.023701,-0.885876 0.115664,-0.09172 0.237479,-0.211881 0.365686,-0.360742 0.0073,-0.0082 0.0143,-0.01259 0.02111,-0.01336 0.01533,-0.0013 0.01746,0.01118 0.0064,0.0373 -0.09785,0.232163 -0.183688,0.468561 -0.257118,0.709172 -0.01269,0.04084 -0.08127,0.282597 -0.205747,0.725019 -0.343776,1.220492 -0.627864,2.49389 -0.852263,3.820193 -0.267986,1.584243 -0.303938,3.156992 -0.107855,4.718244 0.05462,0.433155 0.12564,0.831342 0.213169,1.194426 0.29975,1.237781 0.813535,2.41604 1.541093,3.534664 0.215744,0.330566 0.458073,0.589222 0.727808,0.776695 z m 26.56969,8.881463 c -0.03365,0.337224 -0.11431,0.689801 -0.242224,1.058004 -0.180835,0.52107 -0.421799,1.015659 -0.72277,1.483633 -0.569659,0.884549 -1.148604,1.696764 -1.73659,2.436375 -0.329247,0.414449 -0.609966,0.792365 -0.842403,1.13402 -0.0016,0.0022 -0.03614,0.05641 -0.103867,0.162749 -0.268045,0.421068 -0.659317,0.659411 -1.173946,0.71504 -0.345737,0.03749 -0.686848,-0.02583 -1.02333,-0.18997 -0.01571,-0.0078 -0.03469,-0.0024 -0.04434,0.01222 -0.06368,0.100161 -0.15483,0.174574 -0.273701,0.223514 -0.181828,0.07516 -0.371471,0.115312 -0.569054,0.120451 -0.416967,0.01151 -0.832866,-0.006 -1.247956,-0.05259 -0.739394,-0.08289 -1.458857,-0.316132 -2.158644,-0.699705 -0.225048,-0.122975 -0.401855,-0.257878 -0.530163,-0.404724 -0.239288,-0.273451 -0.430494,-0.577587 -0.573625,-0.912536 -0.203052,-0.476233 -0.383801,-0.960849 -0.542373,-1.453714 -0.2714,-0.84571 -0.421252,-1.718256 -0.449674,-2.617496 -0.0027,-0.07685 -0.02732,-0.145982 -0.0739,-0.207396 -0.33381,-0.438394 -0.69098,-0.866531 -1.071509,-1.284412 -1.238021,-1.358814 -2.46816,-2.724678 -3.690797,-4.097437 -0.223379,-0.250801 -0.400627,-0.41855 -0.53161,-0.503126 -0.06983,-0.04469 -0.186111,-0.06177 -0.348971,-0.05136 -0.686724,0.0447 -1.374108,0.07778 -2.062135,0.09951 -0.70702,0.0223 -1.372714,-0.10503 -1.996966,-0.382243 -0.332707,-0.14779 -0.675127,-0.361808 -1.027149,-0.642316 -0.17621,-0.140371 -0.342048,-0.289486 -0.503059,-0.442499 -0.198247,-0.154649 -0.407206,-0.301963 -0.593202,-0.473357 -0.399332,-0.334245 -0.753279,-0.717011 -1.096718,-1.110728 -0.160945,-0.204264 -0.332355,-0.403663 -0.47994,-0.61878 L 69.869435,42.537496 69.65848,42.206918 c -0.07184,-0.109676 -0.139043,-0.221945 -0.201968,-0.336397 l -0.193354,-0.341933 c -0.115535,-0.23415 -0.243902,-0.464077 -0.345986,-0.705202 L 68.757389,40.46416 68.613667,40.098313 c -0.09986,-0.242934 -0.174577,-0.494413 -0.260874,-0.742389 -0.313035,-0.997739 -0.511937,-2.013865 -0.65932,-3.018423 -0.07278,-0.502137 -0.138901,-1.001029 -0.186261,-1.518197 -0.02331,-0.257764 -0.04173,-0.518267 -0.05124,-0.781473 -0.01169,-0.262824 -0.0019,-0.530491 -0.0019,-0.794885 0.03854,-1.060025 0.228062,-2.10947 0.556882,-3.107944 0.335667,-0.996403 0.819851,-1.938992 1.432937,-2.776701 0.42298,-0.5642 0.909157,-1.077505 1.44723,-1.515589 0.216937,-0.281893 0.493931,-0.5659 0.831772,-0.851811 0.352395,-0.298515 0.713548,-0.586396 1.083322,-0.863767 0.545556,-0.408875 1.046523,-0.866854 1.502635,-1.374051 0.0504,-0.05592 0.04958,-0.07257 -0.0022,-0.0497 -0.0083,0.0037 -0.0171,0.0089 -0.02656,0.01548 -0.144657,0.107607 -0.28518,0.167224 -0.421562,0.178981 -0.137515,0.01234 -0.252958,-0.04245 -0.346179,-0.163979 -0.01215,-0.01562 -0.02978,-0.02523 -0.04835,-0.0265 -0.14116,-0.0086 -0.281849,-0.02023 -0.422199,-0.03504 -0.05428,-0.0055 -0.06209,-0.02223 -0.02356,-0.0503 0.01058,-0.0075 0.02348,-0.01273 0.03872,-0.01553 0.186735,-0.03209 0.34238,-0.09205 0.467201,-0.179762 0.642379,-0.454103 1.224535,-0.97506 1.74672,-1.563012 0.06325,-0.07127 0.104341,-0.142976 0.123417,-0.214978 0.0098,-0.03692 -0.01202,-0.07477 -0.04867,-0.08446 -3.88e-4,-1.08e-4 -7.75e-4,-2.59e-4 -0.0012,-2.59e-4 -0.221396,-0.0564 -0.19185,-0.09445 0.08836,-0.114503 0.0383,-0.0024 0.0717,-0.02724 0.08519,-0.0632 0.01377,-0.03559 -0.0061,-0.0619 -0.05973,-0.07866 -0.01817,-0.0054 -0.01939,-0.01326 -0.0038,-0.02347 0.14975,-0.09767 0.276344,-0.217969 0.379653,-0.360887 0.09691,-0.134789 0.146209,-0.203332 0.147647,-0.205354 0.07533,-0.09552 0.150274,-0.19101 0.225216,-0.286503 0.014,-0.01788 0.01045,-0.02557 -0.0105,-0.02309 -0.01812,0.0022 -0.03208,0.0071 -0.04175,0.01453 -0.238058,0.183441 -0.492361,0.340629 -0.762655,0.471418 -0.09396,0.04546 -0.296484,0.166441 -0.607567,0.36296 -0.150685,0.09488 -0.341977,0.162943 -0.574011,0.204074 -0.01947,0.0034 -0.03717,0.01324 -0.05006,0.02782 -0.325892,0.373234 -0.629574,0.654486 -0.911186,0.843508 -0.293366,0.196289 -0.590874,0.385695 -0.892784,0.568233 -0.11098,0.06713 -0.22757,0.122021 -0.350039,0.164566 -0.132749,0.04611 -0.262304,0.05502 -0.388265,0.02697 -0.11953,-0.02647 -0.224871,-0.09024 -0.316154,-0.191308 -0.180341,-0.19941 -0.242766,-0.44861 -0.187153,-0.74774 0.09195,-0.493375 0.267063,-0.955624 0.525228,-1.386614 0.241462,-0.403769 0.467707,-0.815733 0.679112,-1.236042 0.17043,-0.339688 0.290712,-0.696455 0.360725,-1.070169 0.04758,-0.253638 0.105521,-0.505017 0.173674,-0.754257 0.01908,-0.06967 0.01641,-0.171372 -0.0083,-0.305466 -0.02112,-0.114368 -0.02326,-0.213508 -0.0066,-0.29767 0.06659,-0.333789 0.179221,-0.649746 0.337777,-0.947863 0.168852,-0.317338 0.266471,-0.505745 0.292601,-0.565207 0.107151,-0.24162 0.211254,-0.484491 0.312567,-0.728626 0.0021,-0.0054 0.08936,-0.213045 0.261368,-0.622964 0.363628,-0.866377 0.637352,-1.716129 0.821558,-2.54928 0.118989,-0.53904 0.284382,-1.0403389 0.496064,-1.50363 0.162625,-0.3563262 0.367246,-0.7046843 0.613861,-1.0450742 0.636127,-0.8786175 1.434551,-1.5907071 2.395272,-2.1362691 0.03661,-0.020715 0.04682,-0.011847 0.03077,0.026853 -0.05247,0.1242419 -0.09525,0.2529797 -0.128316,0.3862137 -0.05586,0.2242126 -0.08418,0.3384121 -0.08509,0.342993 -0.295008,1.0947788 -0.298078,2.1960132 -0.0095,3.3034596 0.04302,0.16502 0.124477,0.434882 0.244242,0.809595 5.17e-4,0.0011 0.07723,0.227266 0.230063,0.678396 0.135815,0.399814 0.250237,0.80576 0.343409,1.21809 0.05408,0.238934 0.07956,0.487127 0.07631,0.74433 -2.58e-4,0.02435 0.0098,0.02985 0.03019,0.01653 0.238166,-0.1542 0.491271,-0.270942 0.759186,-0.350218 0.322502,-0.09571 0.725968,-0.192257 1.210279,-0.289518 0.212909,-0.04289 0.441492,-0.122005 0.685885,-0.237217 0.358446,-0.169184 0.631673,-0.428389 0.819421,-0.777601 0.384621,-0.715506 0.772576,-1.429261 1.163486,-2.1411131 0.513716,-0.9353373 1.281278,-1.5436954 2.302943,-1.825089 0.107799,-0.029676 0.190918,-0.022231 0.249357,0.022333 0.08781,0.067226 0.109939,0.1766192 0.06666,0.3282923 -0.268369,0.9371919 -0.434193,1.8387948 -0.497728,2.7048218 -0.04612,0.630281 -0.102261,1.125245 -0.168666,1.485036 -0.112945,0.615829 -0.25806,1.223519 -0.435344,1.823071 -0.140826,0.475833 -0.285301,0.853258 -0.433179,1.132004 -0.24102,0.454863 -0.545083,0.850152 -0.912313,1.186003 -0.07556,0.06874 -0.182913,0.119873 -0.322207,0.153279 -0.01966,0.0047 -0.01969,0.0089 -5.17e-4,0.0122 0.496329,0.08699 0.99631,0.138056 1.499946,0.153195 0.290013,0.009 0.577882,-0.01289 0.863582,-0.06613 0.100273,-0.01864 0.109638,0.0027 0.02797,0.06416 -0.362783,0.272832 -0.769832,0.481789 -1.220879,0.626985 -0.05185,0.01679 -0.206794,0.03206 -0.465101,0.04583 -0.02015,7.76e-4 -0.02223,0.0073 -0.0061,0.01976 0.203538,0.15668 0.395783,0.326424 0.576855,0.509097 0.571606,0.576174 1.232162,1.018659 1.981935,1.327567 0.215466,0.08871 0.440113,0.131725 0.673807,0.128935 0.01991,-3.88e-4 0.02094,0.0041 0.0032,0.01315 -0.207746,0.104201 -0.428435,0.162805 -0.662074,0.175687 -0.457653,0.02431 -0.833618,0.0058 -1.128296,-0.05576 -0.244512,-0.05095 -0.462364,-0.156603 -0.65355,-0.316831 -0.06304,-0.05271 -0.07229,-0.04468 -0.02788,0.0241 0.164886,0.255418 0.370613,0.473445 0.617306,0.653945 7.75e-4,3.88e-4 0.149917,0.08984 0.447098,0.268379 0.423947,0.254941 0.768639,0.595525 1.034218,1.022006 0.008,0.01339 0.01536,0.02669 0.02169,0.04018 0.07485,0.153505 0.05629,0.164005 -0.0554,0.03175 -0.10699,-0.126963 -0.223263,-0.244208 -0.348948,-0.351731 -0.182833,-0.156692 -0.395478,-0.241287 -0.637813,-0.253925 -0.0858,-0.0044 -0.09145,0.01451 -0.01683,0.05686 0.288815,0.165684 0.533826,0.382645 0.735164,0.651004 0.121086,0.160974 0.26906,0.44673 0.444049,0.85726 0.186152,0.436168 0.374209,0.871709 0.564422,1.306481 0.01899,0.04266 0.01006,0.04951 -0.02679,0.02042 -0.136338,-0.108212 -0.258867,-0.242186 -0.36758,-0.401793 -0.07035,-0.103807 -0.08638,-0.09668 -0.04808,0.02163 0.02412,0.07369 0.06187,0.13923 0.113282,0.196748 0.222399,0.247232 0.480247,0.448712 0.773286,0.604449 0.01935,0.01029 0.0188,0.01886 -0.0015,0.02558 -0.0418,0.01376 -0.08805,0.0129 -0.138744,-0.0025 -0.341575,-0.103416 -0.63796,-0.281611 -0.889028,-0.534593 -0.283891,-0.286319 -0.508067,-0.551182 -0.672773,-0.794315 -0.01455,-0.02143 -0.02781,-0.03168 -0.0394,-0.03063 -0.01222,0.0013 -0.01798,0.01836 -0.01311,0.03802 7.75e-4,0.0029 0.0018,0.0059 0.003,0.0088 0.164432,0.381882 0.249958,0.63223 0.256713,0.751167 0.02008,0.353586 0.04133,0.707234 0.06386,1.06068 0.04903,0.76309 0.339417,1.414379 0.871149,1.953864 0.119998,0.121305 0.484916,0.421528 1.094745,0.90054 0.452022,0.355067 0.790317,0.785829 1.0149,1.292544 0.158949,0.358252 0.241813,0.716684 0.248327,1.07518 0.0068,0.377504 -0.06317,0.747205 -0.210076,1.109109 -0.09505,0.233686 -0.191809,0.466821 -0.290544,0.699423 -0.145534,0.342801 -0.259687,0.695858 -0.34244,1.059424 -0.09117,0.400022 -0.09871,0.802671 -0.02263,1.207948 0.09108,0.482591 0.219495,0.954909 0.385123,1.41709 0.252901,0.704536 0.526174,1.400925 0.819828,2.089298 0.239004,0.560122 0.397355,0.932902 0.475174,1.118205 0.187096,0.445948 0.453502,1.07155 0.799361,1.877056 0.80513,1.876081 1.557113,3.773429 2.255951,5.692043 0.197958,0.543818 0.431973,0.975066 0.702308,1.293861 0.176409,0.207657 0.321689,0.395858 0.435839,0.564603 0.11813,0.174988 0.218509,0.388387 0.300891,0.640337 0.18906,0.580818 0.318788,1.18791 0.389313,1.821272 0.04102,0.37129 0.04398,0.735684 0.0087,1.092412 z M 85.579243,23.18287 c 0.166758,0.459269 0.332756,0.91884 0.498008,1.378971 0.0068,0.01941 0.0092,0.01889 0.0072,-0.0016 -0.05106,-0.500264 -0.200704,-0.968142 -0.448943,-1.403759 -0.0115,-0.02018 -0.02779,-0.03349 -0.04341,-0.03519 -0.02477,-0.0031 -0.02903,0.01744 -0.01282,0.06155 z m -1.36824,-2.090765 c -0.210437,-0.10724 -0.40296,-0.236333 -0.576429,-0.389931 -0.175683,-0.153862 -0.349805,-0.344048 -0.580121,-0.484582 -0.229601,-0.141612 -0.505469,-0.204629 -0.758463,-0.161142 0.242463,0.08096 0.45065,0.196482 0.620886,0.350136 0.172651,0.152868 0.323676,0.344237 0.520227,0.519172 0.198424,0.175993 0.436249,0.309761 0.687934,0.384504 0.251299,0.07477 0.51883,0.09581 0.769308,0.03991 -0.246417,-0.06857 -0.472755,-0.150449 -0.683342,-0.258068 z m -1.325834,-2.642927 c -0.318826,-0.160874 -0.61691,-0.368997 -0.941225,-0.55816 -0.321754,-0.187366 -0.678076,-0.36358 -1.070058,-0.415732 -0.193788,-0.02601 -0.39267,-0.02325 -0.583507,0.01864 -0.190012,0.04276 -0.371277,0.127854 -0.50976,0.255298 0.346402,-0.148829 0.711415,-0.131772 1.04847,-0.04415 0.338588,0.08728 0.649422,0.260123 0.964226,0.443613 0.31426,0.183004 0.636303,0.38459 0.998762,0.516197 0.35618,0.130409 0.765285,0.19466 1.126464,0.07359 -0.375885,-0.0057 -0.714918,-0.128155 -1.033372,-0.289307 z m 1.586688,-3.501226 c -0.251313,0.307785 -0.566543,0.51101 -0.945697,0.609545 -0.253663,0.06591 -0.518843,0.102198 -0.795405,0.108975 -0.272542,0.0069 -0.540374,-0.03764 -0.803755,-0.133721 -0.112982,-0.04108 -0.117364,-0.03164 -0.01302,0.02818 0.294697,0.168973 0.57762,0.385851 0.848892,0.650498 0.01318,0.01323 0.0332,0.01714 0.05039,0.0099 0.313472,-0.136217 0.639279,-0.317266 0.977545,-0.543282 0.295384,-0.19718 0.530597,-0.433002 0.706039,-0.707231 0.004,-0.0067 0.007,-0.01334 0.0086,-0.0199 0.0071,-0.03819 -0.004,-0.03924 -0.03356,-0.003 z M 80.00223,14.215916 c 0.0019,0.01982 0.02039,0.02628 0.0552,0.01938 0.03416,-0.0069 0.0535,-0.01054 0.05838,-0.01121 0.537092,-0.0657 1.044776,-0.225375 1.523068,-0.478756 0.0205,-0.01048 0.02985,-0.0053 0.02819,0.01548 -0.0029,0.03588 -0.02101,0.06525 -0.05465,0.08826 -0.261449,0.179464 -0.507631,0.377085 -0.738668,0.592999 -0.157552,0.147163 -0.351615,0.275822 -0.582582,0.385871 -0.02091,0.01012 -0.02788,0.01944 -0.02093,0.02798 0.0057,0.0076 0.01953,0.009 0.03359,0.0035 0.230624,-0.08648 0.468057,-0.107726 0.71218,-0.06361 0.197477,0.03628 0.39498,0.03658 0.59239,0.001 0.891352,-0.160496 1.543103,-0.638686 1.95526,-1.43444 0.207633,-0.400166 0.34173,-0.823591 0.40217,-1.27014 0.05994,-0.44406 0.09451,-0.714947 0.103472,-0.812259 0.04662,-0.498435 0.200596,-0.979802 0.461672,-1.4438282 0.166069,-0.2956969 0.295495,-0.5142522 0.3884,-0.6558023 0.01035,-0.016117 0.01483,-0.032808 0.01264,-0.046272 -0.0047,-0.026132 -0.0203,-0.022401 -0.04686,0.011202 -0.139277,0.1749845 -0.267765,0.3576386 -0.385465,0.5479626 -0.169715,0.2748094 -0.629495,1.1025169 -1.379346,2.4829919 -0.351279,0.646318 -0.84114,1.124372 -1.469327,1.434149 -0.471306,0.232796 -1.009128,0.422391 -1.613447,0.569044 -0.02157,0.0052 -0.03673,0.02085 -0.03533,0.03643 z m -2.961808,3.704726 c 0.04223,-0.01301 0.07516,-0.04607 0.08803,-0.08834 0.0049,-0.0162 0.01019,-0.03242 0.0151,-0.04861 0.23615,-0.242088 0.486599,-0.45574 0.761387,-0.628197 0.299091,-0.191177 0.616481,-0.329041 0.958148,-0.429071 0.340531,-0.104107 0.704273,-0.186884 1.052119,-0.344466 0.172975,-0.07841 0.339388,-0.176643 0.487152,-0.297885 0.146409,-0.122329 0.273479,-0.270737 0.35281,-0.439341 -0.263666,0.263451 -0.58811,0.411551 -0.924617,0.518146 -0.336787,0.106223 -0.694433,0.168724 -1.054337,0.278073 -0.361049,0.105142 -0.716978,0.282208 -1.008859,0.52513 -0.231005,0.189125 -0.429418,0.416645 -0.577837,0.669927 0.27108,-0.878075 0.560826,-1.753326 0.870801,-2.625585 0.174744,-0.491606 0.256316,-0.994485 0.244579,-1.508759 -0.0061,-0.25188 -0.0487,-0.547635 -0.127659,-0.887394 -0.0681,-0.292104 -0.146782,-0.581536 -0.236066,-0.868424 -0.01627,-0.05175 -0.03064,-0.06556 -0.04311,-0.04129 -0.005,0.0096 -0.0063,0.02158 -0.0034,0.03604 0.08553,0.441882 0.12583,0.741259 0.120892,0.898131 -0.03856,1.239653 -0.279289,2.437987 -0.722042,3.595123 -0.196595,0.514717 -0.326382,1.045959 -0.389364,1.593595 -0.01072,0.09379 0.03466,0.124859 0.136261,0.09321 z m -0.920217,-0.183661 c 0.01195,-0.439006 0.04182,-0.876959 0.08961,-1.313859 10e-4,-0.0086 0.0037,-0.01742 0.0075,-0.02657 0.01142,-0.02666 0.0083,-0.03658 -0.0096,-0.02987 -0.01036,0.0045 -0.01818,0.01488 -0.02093,0.02798 -0.09938,0.490173 -0.215952,0.976017 -0.349598,1.457523 -0.0588,0.213379 -0.152075,0.444117 -0.279952,0.692221 -0.194613,0.37872 -0.435479,0.749713 -0.722618,1.112593 -0.02342,0.02967 -0.02026,0.03299 0.0096,0.0098 0.203895,-0.158336 0.39409,-0.32547 0.570591,-0.501275 0.212988,-0.212431 0.337437,-0.340889 0.373468,-0.385513 0.113983,-0.14184 0.196405,-0.30389 0.247274,-0.486018 0.05126,-0.182151 0.0794,-0.367906 0.08458,-0.557017 z m -1.807709,20.475514 c 0.84683,0.746381 1.777244,1.387592 2.745514,1.947967 0.591398,0.341327 1.197265,0.652584 1.812766,0.94207 0.03309,0.02892 0.06446,0.05937 0.09815,0.0876 0.669699,0.56245 1.383692,1.061689 2.141856,1.497852 0.401104,0.231002 0.804654,0.457206 1.210527,0.678749 1.193687,0.651105 2.304926,1.420519 3.333726,2.30837 0.218277,0.188325 0.396428,0.390189 0.534338,0.605856 0.04044,0.06254 0.05693,0.05682 0.04948,-0.01743 -0.01783,-0.177321 -0.04784,-0.352397 -0.09001,-0.525231 -0.139795,-0.570155 -0.32299,-1.125163 -0.549448,-1.664902 C 85.424972,43.656751 85.23931,43.297557 85.042537,42.995679 84.7618,42.564366 84.430941,42.1711 84.049944,41.815624 c -0.171664,-0.16056 -0.345009,-0.277801 -0.519912,-0.351858 -0.93431,-0.395359 -1.943301,-0.745322 -3.026847,-1.049898 -0.01644,-0.0046 -0.02745,-0.0207 -0.02584,-0.038 0.04744,-0.556977 0.07026,-0.954929 0.06846,-1.194115 -0.0055,-0.760256 -0.132011,-1.499536 -0.379603,-2.217702 -0.161536,-0.467589 -0.439109,-0.850034 -0.832705,-1.147076 -0.439293,-0.331459 -0.819501,-0.593285 -1.140494,-0.785482 -0.37896,-0.226177 -0.722939,-0.4722 -1.032068,-0.738062 -0.26985,-0.232763 -0.54631,-0.527269 -0.829248,-0.883396 -0.563348,-0.708775 -1.043145,-1.473156 -1.439652,-2.293126 -0.05195,-0.108088 -0.110807,-0.212418 -0.176431,-0.312869 -0.08801,-0.134511 -0.213029,-0.209849 -0.375341,-0.226254 -0.01912,-0.0018 -0.03613,-0.0073 -0.05076,-0.01653 -0.02186,-0.01338 -0.01935,-0.01935 0.0075,-0.01803 0.269424,0.0111 0.595726,-0.01999 0.978773,-0.09325 0.324535,-0.06217 0.65165,-0.101717 0.981616,-0.118386 0.658099,-0.03375 1.266251,0.11949 1.824448,0.459597 0.07345,0.04449 0.08855,0.03923 0.0453,-0.0159 -0.0056,-0.0074 -0.01271,-0.01429 -0.02123,-0.02067 -0.21733,-0.164827 -0.422877,-0.281662 -0.616508,-0.350513 -0.39926,-0.141552 -0.892173,-0.277785 -1.478609,-0.408706 -0.211423,-0.04714 -0.425562,-0.06461 -0.642151,-0.05231 -0.282894,0.01607 -0.565876,0.03058 -0.848953,0.04343 -0.03188,0.0014 -0.04025,-0.0046 -0.02471,-0.01814 0.0047,-0.0043 0.01058,-0.0073 0.01774,-0.0089 0.314107,-0.07944 0.626779,-0.165918 0.937629,-0.259409 0.358065,-0.107562 0.723918,-0.157718 1.097692,-0.150474 0.513038,0.0098 1.0258,0.02612 1.538411,0.0489 0.468632,0.02088 0.916641,0.12071 1.344027,0.299489 0.14001,0.05896 0.274584,0.13155 0.403984,0.217896 0.127702,0.08606 0.250968,0.178317 0.369684,0.277047 0.399282,0.333344 0.806991,0.655596 1.223267,0.966879 0.135433,0.101406 0.259779,0.214957 0.372651,0.340679 0.234579,0.261166 0.332114,0.568034 0.292479,0.92061 -0.03033,0.272589 -0.142129,0.489366 -0.335263,0.650326 -0.181171,0.150575 -0.443222,0.335379 -0.785905,0.55427 -0.01687,0.01066 -0.01598,0.01941 0.0026,0.02599 l 0.0677,0.0254 c 0.01812,0.0069 0.03387,0.01982 0.04468,0.03693 0.06785,0.110031 0.113227,0.216292 0.13613,0.318782 0.254485,1.147173 0.692791,2.217775 1.314789,3.211815 0.309432,0.49452 0.552497,0.911925 0.729184,1.252087 0.449967,0.868053 0.958759,1.657575 1.526624,2.368423 0.219983,0.275325 0.526455,0.63568 0.919531,1.080803 1.084731,1.230082 1.779184,2.656781 2.083351,4.279966 0.03914,0.210664 0.05134,0.407199 0.03646,0.589613 -0.01593,0.198003 -0.04621,0.394104 -0.09069,0.588423 -0.0046,0.01967 0.0015,0.02437 0.0184,0.0141 0.403173,-0.247561 0.849283,-0.431818 1.338201,-0.552765 0.03586,-0.0089 0.07204,0.01286 0.08093,0.04872 0.002,0.0076 0.0024,0.01552 0.0017,0.0232 -0.0081,0.07876 -0.04077,0.152565 -0.09807,0.221434 -0.01975,0.02377 -0.01553,0.02961 0.01252,0.01754 0.11757,-0.05132 0.185241,-0.122205 0.203261,-0.212784 0.0053,-0.02748 -0.0016,-0.115087 -0.02101,-0.262813 -0.03375,-0.259242 -0.08633,-0.494637 -0.157486,-0.706201 -0.546205,-1.614617 -1.193395,-3.236827 -1.941557,-4.866374 -0.249871,-0.544104 -0.387417,-0.842229 -0.41263,-0.894245 -0.152678,-0.31163 -0.314406,-0.598028 -0.484925,-0.859208 -0.361833,-0.553534 -0.827424,-1.031291 -1.396894,-1.433135 -0.459503,-0.325006 -1.004674,-0.788926 -1.635376,-1.391638 -0.60528,-0.57892 -1.109791,-1.233835 -1.5143,-1.964573 0.136589,0.155953 0.302832,0.284855 0.485333,0.383328 0.418913,0.223261 0.860927,0.308678 1.233764,0.452119 0.373243,0.141476 0.72254,0.35122 1.054859,0.603858 0.333945,0.251641 0.645505,0.546612 0.975556,0.848168 -0.158615,-0.418448 -0.40161,-0.802728 -0.711828,-1.137893 -0.310252,-0.333482 -0.699977,-0.612495 -1.142608,-0.779408 -0.44211,-0.164613 -0.871267,-0.215042 -1.251934,-0.343673 -0.187218,-0.06301 -0.369934,-0.1493 -0.531878,-0.268611 -0.162174,-0.118781 -0.303319,-0.272921 -0.391807,-0.479747 -0.0052,0.05892 -0.0022,0.118539 0.0071,0.177927 -0.0351,-0.07566 -0.07118,-0.150477 -0.104426,-0.227662 -0.01923,-0.04459 -4e-5,-0.09641 0.04377,-0.118053 0.332195,-0.161999 0.597902,-0.387259 0.797243,-0.675916 0.371614,-0.538893 0.356434,-1.068243 -0.04582,-1.588422 -0.146134,-0.189576 -0.331998,-0.374565 -0.557604,-0.555227 -0.824128,-0.661093 -1.618523,-1.25438 -2.383562,-1.779707 -0.187313,-0.128483 -0.370731,-0.224834 -0.550396,-0.289303 -0.221797,-0.07942 -0.447728,-0.145011 -0.677669,-0.196917 -0.260861,-0.05856 -0.424771,-0.09856 -0.492111,-0.119843 -0.161781,-0.05034 -0.32044,-0.109533 -0.475963,-0.177315 -0.02906,-0.01258 -0.02772,-0.01641 0.0043,-0.01176 0.169669,0.02518 0.339512,0.04659 0.509652,0.06411 0.170935,0.01786 0.341524,0.01593 0.511759,-0.0059 0.227002,-0.02946 0.427289,-0.06219 0.600746,-0.09792 0.264907,-0.05478 0.512798,-0.09927 0.743544,-0.133466 0.295932,-0.04398 0.545845,-0.07565 0.750004,-0.09488 0.733602,-0.06923 1.45963,-0.0098 2.17822,0.178475 0.197059,0.0517 0.395103,0.100245 0.593873,0.145641 0.04431,0.01004 0.04859,0.0012 0.01246,-0.02685 -0.183229,-0.140879 -0.365353,-0.275997 -0.546648,-0.405599 -0.308492,-0.220473 -0.641275,-0.383272 -0.998339,-0.488266 -0.165304,-0.04859 -0.399865,-0.09066 -0.703541,-0.126083 -0.350602,-0.0413 -0.589005,-0.06218 -0.715088,-0.06279 -0.352351,-0.0015 -1.273472,0.02224 -2.763106,0.07112 -0.387266,0.01268 -0.692808,-0.01229 -0.916506,-0.07503 -0.318902,-0.0893 -0.637911,-0.17821 -0.957156,-0.266718 -0.06993,-0.01906 -0.141389,-0.02626 -0.214094,-0.02123 -0.01933,0.0015 -0.03732,-0.0032 -0.05004,-0.01295 -0.03185,-0.02537 -0.01645,-0.03673 0.04607,-0.03419 0.112637,0.0054 0.222749,-0.0086 0.330343,-0.04193 0.83075,-0.256833 1.600178,-0.636362 2.308398,-1.138854 0.241197,-0.171454 0.495601,-0.408886 0.762953,-0.712275 0.313887,-0.356764 0.537651,-0.73494 0.67141,-1.134663 0.03885,-0.115703 0.07954,-0.230993 0.122081,-0.345611 0.0028,-0.007 0.0037,-0.01406 0.0024,-0.02084 -0.0041,-0.02241 -0.01442,-0.01924 -0.03103,0.0097 -0.297055,0.516411 -0.694279,0.909744 -1.19193,1.180013 -0.228103,0.123993 -0.60581,0.268517 -1.133385,0.43346 -0.48392,0.15198 -0.975883,0.274005 -1.475897,0.365945 -0.0196,0.0036 -0.02276,-0.0019 -0.0095,-0.01654 0.07905,-0.08473 0.135573,-0.167268 0.169591,-0.247367 0.07213,-0.172336 0.131352,-0.364644 0.177663,-0.576926 0.03661,-0.168766 0.04399,-0.307787 0.02186,-0.41718 -0.02886,-0.143565 -0.09251,-0.273118 -0.191218,-0.388644 -0.01056,-0.0126 -0.02953,-0.01411 -0.04238,-0.0034 -1.23e-4,1.29e-4 -2.58e-4,1.29e-4 -3.88e-4,2.59e-4 -0.381032,0.329776 -0.726072,0.694003 -1.034991,1.092674 -0.114563,0.147568 -0.165923,0.141038 -0.154353,-0.01983 0.003,-0.04106 0.0031,-0.07757 5.17e-4,-0.109514 -0.03632,-0.46176 0.07482,-0.881552 0.33353,-1.259641 0.01125,-0.01604 0.0085,-0.01899 -0.0084,-0.0087 -0.249809,0.156544 -0.513009,0.2824 -0.789856,0.377584 -0.328887,0.113151 -0.529768,0.187843 -0.602778,0.223955 -0.32897,0.161817 -0.633916,0.36381 -0.914969,0.605988 -0.0092,0.0083 -0.01989,0.01433 -0.03184,0.01824 -0.01194,0.0039 -0.02389,0.0078 -0.03583,0.01175 -0.01207,0.0039 -0.01871,0.01698 -0.01479,0.02905 6.46e-4,0.002 0.0015,0.0039 0.0028,0.0057 0.324214,0.490446 0.636317,0.988697 0.936304,1.494625 0.381121,0.64251 0.717971,1.307595 1.010412,1.995131 0.08185,0.192451 0.135366,0.378227 0.160573,0.557717 0.02371,0.166892 0.0021,0.312934 -0.06456,0.437853 -0.07189,0.133368 -0.176285,0.248005 -0.313072,0.343775 -0.105666,0.07407 -0.189831,0.05504 -0.252646,-0.05748 -0.123509,-0.21959 -0.221105,-0.459158 -0.292659,-0.718712 -0.0204,-0.07429 -0.03848,-0.07365 -0.05399,0.0019 -0.07941,0.392883 -0.09437,0.794789 -0.04465,1.205446 0.04603,0.382135 0.161022,0.811732 0.345081,1.288525 0.120814,0.313439 0.251851,0.622288 0.393233,0.926406 0.08363,0.180571 0.23643,0.478348 0.45827,0.893464 0.178693,0.334483 0.35299,0.671286 0.522623,1.010295 0.113426,0.226634 0.288567,0.562353 0.525545,1.007023 0.176531,0.330594 0.342734,0.666174 0.498738,1.006734 0.08423,0.184162 0.213251,0.512276 0.386826,0.984488 0.103559,0.280773 0.232198,0.608909 0.38618,0.984525 0.320045,0.781608 0.746877,1.470183 1.275574,2.070146 -0.320185,-0.205315 -0.639139,-0.411734 -0.953363,-0.62373 -0.915889,-0.615634 -1.80296,-1.266164 -2.623144,-1.989987 -0.818837,-0.722867 -1.569308,-1.522604 -2.212584,-2.40595 -0.643769,-0.88293 -1.171612,-1.85294 -1.548584,-2.903213 0.174297,1.104751 0.623279,2.167369 1.224179,3.122617 0.60273,0.957862 1.361161,1.813444 2.207484,2.559985 z M 79.800668,32.5332 c -0.08615,0.02806 -0.166491,0.05812 -0.244755,0.08831 -0.144469,0.05622 -0.278871,0.116523 -0.412323,0.179879 -0.133301,0.06374 -0.264914,0.129837 -0.399956,0.206225 -0.135384,0.07719 -0.273803,0.157907 -0.425156,0.275211 0.171029,0.08787 0.352276,0.109538 0.529063,0.100532 0.177122,-0.0099 0.349911,-0.0574 0.509229,-0.132452 0.159038,-0.07542 0.305341,-0.17911 0.425121,-0.310022 0.0771,-0.08487 0.14322,-0.180773 0.192382,-0.288132 0.142202,0.104385 0.281457,0.218385 0.417466,0.345899 -0.136871,-0.407 -0.425,-0.76568 -0.784768,-1.027631 -0.358584,-0.261629 -0.807761,-0.425323 -1.251026,-0.462138 -0.440979,-0.04212 -0.855293,1.29e-4 -1.251071,0.002 -0.39712,9.05e-4 -0.787563,-0.02865 -1.176534,-0.207799 0.127487,0.173424 0.312871,0.306675 0.51169,0.403056 0.200231,0.09617 0.415575,0.155379 0.630233,0.1934 0.431953,0.0746 0.850972,0.06504 1.237312,0.104439 0.384471,0.03381 0.744533,0.134625 1.09701,0.302387 0.135947,0.06488 0.267056,0.14259 0.396083,0.226888 z m 8.912506,25.172288 c -0.604022,-0.477013 -1.138521,-1.021905 -1.603511,-1.634934 -0.421989,-0.555424 -0.840876,-1.113224 -1.256664,-1.673399 -0.627383,-0.845036 -1.307761,-1.645649 -2.041263,-2.401832 -0.01856,-0.01926 -0.02702,-0.01555 -0.02551,0.01115 0.01895,0.313142 0.144669,0.576221 0.376902,0.789247 0.848173,0.776849 1.614504,1.627969 2.299114,2.553227 0.282704,0.381636 0.576836,0.754858 0.882123,1.119422 0.394012,0.470693 0.840222,0.885232 1.338641,1.243745 0.211137,0.140072 0.221233,0.137816 0.03017,-0.0066 z m 1.059477,-1.235774 c -0.159766,-0.03765 -0.274556,-0.144752 -0.370102,-0.261623 -0.09461,-0.118606 -0.17686,-0.254349 -0.264163,-0.387865 -0.17193,-0.2655 -0.331954,-0.531029 -0.428654,-0.804944 -0.09703,-0.270661 -0.123692,-0.56007 -0.122798,-0.86334 0.0032,-0.300556 0.02115,-0.625756 0.04244,-0.929795 0.02436,-0.304733 0.06802,-0.600207 0.161899,-0.87045 0.09401,-0.270251 0.238171,-0.520962 0.441638,-0.707357 0.199425,-0.184612 0.485523,-0.310604 0.775317,-0.403417 0.29048,-0.08988 0.600416,-0.13336 0.91855,-0.06899 -0.280541,-0.168095 -0.635171,-0.205155 -0.966512,-0.169385 -0.167421,0.01896 -0.330704,0.05152 -0.494459,0.103143 -0.163238,0.05159 -0.327882,0.126294 -0.476051,0.233582 -0.296935,0.213186 -0.506322,0.520919 -0.63885,0.844348 -0.133872,0.327127 -0.190436,0.66876 -0.217257,0.998608 -0.0232,0.332101 -0.03287,0.644928 -0.01876,0.982158 0.0163,0.332576 0.07672,0.687753 0.234865,1.004508 0.154646,0.314366 0.373665,0.570462 0.597444,0.803252 0.113123,0.11419 0.224347,0.233665 0.36011,0.336345 0.131685,0.101488 0.301412,0.18011 0.465343,0.161223 z m 1.577602,-2.257553 c -0.05414,-0.221847 -0.140227,-0.425057 -0.23784,-0.6148 -0.197429,-0.37496 -0.431087,-0.727028 -0.725604,-1.034096 0.11353,0.408455 0.245187,0.796599 0.363261,1.182537 0.117329,0.379639 0.20144,0.755471 0.141401,1.081511 -0.06151,0.325218 -0.264494,0.627153 -0.566085,0.696824 -0.151588,0.03799 -0.332699,0.02097 -0.511082,-0.04371 -0.179599,-0.06331 -0.354316,-0.165974 -0.52447,-0.293102 0.08675,0.194501 0.226736,0.369155 0.407414,0.506168 0.179903,0.134726 0.416492,0.230774 0.675488,0.217748 0.258714,-0.0089 0.513753,-0.143969 0.682465,-0.331626 0.172322,-0.187861 0.279163,-0.41898 0.325201,-0.661141 0.04512,-0.246898 0.02299,-0.483894 -0.03015,-0.706317 z m 2.241534,-1.947003 c -0.06694,-0.292171 -0.160973,-0.592118 -0.28224,-0.899839 -0.362896,-0.920882 -0.868615,-1.724684 -1.517554,-2.411516 -0.396428,-0.419825 -0.833037,-0.817956 -1.30969,-1.194271 -0.02047,-0.01631 -0.05029,-0.0128 -0.0666,0.0077 -0.0017,0.002 -0.0031,0.0043 -0.0044,0.0066 -0.0418,0.07743 -0.09685,0.147338 -0.164977,0.210091 -0.06053,0.05533 -0.09225,0.0847 -0.09529,0.08811 -0.768024,0.761999 -1.25778,1.221412 -1.469525,1.378253 -0.362675,0.267909 -0.721566,0.540909 -1.076812,0.818879 -0.01584,0.01268 -0.0195,0.0098 -0.01084,-0.0086 0.03778,-0.07759 0.08122,-0.151368 0.130297,-0.221451 0.0614,-0.08787 0.107834,-0.170352 0.139165,-0.24758 0.219772,-0.535058 0.535395,-1.0071 0.946747,-1.415988 0.01384,-0.01373 0.01231,-0.01571 -0.0046,-0.0058 -0.401368,0.229211 -0.833254,0.365424 -1.295915,0.408654 -0.01725,0.0016 -0.03096,0.01535 -0.03281,0.03292 -0.03684,0.322005 -0.113492,0.592564 -0.229952,0.811547 -0.09018,0.168962 -0.263259,0.436974 -0.519345,0.804302 -0.05325,0.0764 -0.08514,0.139297 -0.09567,0.188556 -0.0159,0.07104 -0.01357,0.143902 0.007,0.218573 0.01948,0.07188 0.01153,0.09589 -0.02387,0.07189 -0.01145,-0.0079 -0.02043,-0.02019 -0.02706,-0.03677 -0.131728,-0.327833 -0.239039,-0.663263 -0.321683,-1.006437 -0.02639,-0.109149 -0.05486,-0.184406 -0.08516,-0.22565 -0.05227,-0.07041 -0.123817,-0.115654 -0.214506,-0.13561 -0.247167,-0.05442 -0.443218,-0.172702 -0.588139,-0.354582 -0.293323,-0.368091 -0.551605,-0.759525 -0.774585,-1.174189 -0.23388,-0.433456 -0.470397,-0.86547 -0.709793,-1.295766 -0.199667,-0.359692 -0.426729,-0.657133 -0.681322,-0.892443 -0.290082,-0.26772 -0.644069,-0.521329 -1.061955,-0.760696 -0.240776,-0.13787 -0.521108,-0.240752 -0.837923,-0.311536 -0.345819,-0.109775 -0.704188,-0.185318 -1.066597,-0.229444 -0.624941,-0.07516 -1.266103,-0.05311 -1.887292,0.06085 -0.619069,0.11255 -1.203495,0.292756 -1.787604,0.421568 -0.292338,0.06397 -0.585242,0.118004 -0.883139,0.143335 -0.298445,0.02251 -0.598799,0.04333 -0.882324,-0.09069 0.108628,0.112504 0.256696,0.190285 0.409594,0.239191 0.153805,0.05118 0.311408,0.07355 0.468429,0.09479 0.31539,0.03657 0.634897,0.02943 0.948033,-10e-4 0.628213,-0.06092 1.227611,-0.212207 1.815377,-0.317671 0.450092,-0.08225 0.904167,-0.130812 1.362516,-0.149725 0.09349,0.233332 0.215685,0.452608 0.370122,0.656206 0.12575,0.165627 0.30959,0.319543 0.551655,0.461869 0.176595,0.103855 0.381749,0.257079 0.615453,0.45954 0.246904,0.213877 0.435927,0.386134 0.566945,0.516907 0.275397,0.273472 0.488473,0.557084 0.639494,0.850949 0.273015,0.532307 0.465888,1.107342 0.578379,1.725379 0.0037,0.01933 0.0214,0.03269 0.04069,0.03056 0.308339,-0.03291 0.612126,-0.04796 0.911499,-0.04504 0.43365,0.0042 0.847474,0.09461 1.241482,0.271275 0.410614,0.184262 0.685988,0.491512 0.825997,0.921887 0.121896,0.375757 0.234392,0.754636 0.337604,1.136371 0.101073,0.373704 0.189879,0.622571 0.266146,0.74636 0.155342,0.251431 0.297097,0.505186 0.425124,0.761016 0.0836,0.166338 0.106697,0.158296 0.06917,-0.02399 -0.132306,-0.645642 -0.0864,-1.261545 0.137729,-1.847451 0.115362,-0.302135 0.277895,-0.559842 0.487591,-0.77325 0.205751,-0.209949 0.452755,-0.397651 0.741006,-0.563237 0.219064,-0.125939 0.412148,-0.217142 0.579243,-0.273738 0.0852,-0.02878 0.167002,-0.03317 0.245521,-0.0133 0.06961,0.01792 0.150485,0.04516 0.243022,0.0817 0.31484,0.124864 0.686368,0.217908 1.114842,0.279116 0.217881,0.03098 0.421057,-0.0079 0.609388,-0.116658 0.100111,-0.05797 0.140165,-0.141128 0.120293,-0.249485 -0.0071,-0.03765 0.0025,-0.04233 0.02847,-0.01378 0.3294,0.360737 0.580412,0.760866 0.75303,1.200261 0.210471,0.536247 0.410797,1.076176 0.600995,1.620046 0.0654,0.18769 0.126438,0.339521 0.183366,0.455479 0.07167,0.147604 0.149737,0.291738 0.234345,0.432524 0.114564,0.189687 0.202433,0.387876 0.263602,0.594443 0.02913,0.09812 0.04868,0.09611 0.05868,-0.0058 0.03087,-0.319985 0.04463,-0.64055 0.04142,-0.961444 -0.0031,-0.343293 -0.03651,-0.65419 -0.100235,-0.933211 z M 94.201621,48.94339 C 94.158488,48.698916 94.09435,48.460553 94.008939,48.228187 93.9274,48.00699 93.886042,47.89403 93.884473,47.889201 93.129815,45.694093 92.338628,43.512059 91.511184,41.343344 91.365327,40.960407 91.212922,40.585219 91.053725,40.218052 90.621638,39.220474 90.283825,38.47236 90.04016,37.973717 89.630421,37.134956 89.275194,36.32403 88.974471,35.540808 88.623345,34.626635 88.37679,33.67378 88.234949,32.682496 c -0.08381,-0.584725 -0.125864,-0.878566 -0.126026,-0.881404 -0.05124,-0.316615 -0.102998,-0.6332 -0.155521,-0.949613 -0.108354,-0.652308 -0.181183,-1.050522 -0.218107,-1.194793 -0.172964,-0.668827 -0.475385,-1.288243 -0.907124,-1.858124 -0.103904,-0.136455 -0.08473,-0.156568 0.05739,-0.06046 0.597892,0.405535 1.264775,0.788517 2.000391,1.148959 0.04925,0.02399 0.0611,0.01167 0.0357,-0.03671 C 88.635036,28.301863 88.26434,27.813281 87.809431,27.384612 87.393908,26.99305 87.094301,26.678376 86.910493,26.440727 86.683781,26.147149 86.447169,25.743095 86.200674,25.228823 86.0884,24.995135 85.95853,24.788848 85.810932,24.609967 85.468286,24.196018 85.070399,23.814324 84.617159,23.46515 84.3576,23.265451 84.145485,23.023845 83.980565,22.740476 c -0.0099,-0.01691 -0.01841,-0.02328 -0.02542,-0.01926 -0.0078,0.0039 -0.0097,0.01763 -0.0049,0.03186 0.148128,0.416068 0.311054,0.826117 0.488894,1.229886 0.05587,0.127018 0.127014,0.231167 0.213564,0.312702 0.173955,0.164442 0.38106,0.313283 0.621308,0.446395 0.04398,0.02468 0.04621,0.03892 0.0067,0.04284 -0.0093,9.04e-4 -0.01891,-3.88e-4 -0.02881,-0.0038 -0.228968,-0.07577 -0.458677,-0.14866 -0.689257,-0.218649 -0.219883,-0.0662 -0.434379,-0.17657 -0.643376,-0.331387 -0.231521,-0.170878 -0.426008,-0.339072 -0.583321,-0.504459 -0.0056,-0.0058 -0.0103,-0.01261 -0.01397,-0.02043 -0.02563,-0.05251 -0.03674,-0.04981 -0.03307,0.008 5.17e-4,0.0085 0.0031,0.01664 0.0081,0.02452 0.227586,0.338565 0.515933,0.58943 0.864907,0.752473 0.118727,0.05564 0.21392,0.118431 0.285561,0.188129 0.0133,0.01309 0.02294,0.02794 0.02867,0.04457 0.02079,0.05848 0.0023,0.07221 -0.05549,0.04146 -0.0351,-0.01871 -0.140676,-0.0593 -0.316483,-0.121923 -0.38693,-0.138628 -0.760377,-0.306494 -1.120359,-0.503854 -0.158171,-0.08704 -0.280307,-0.170826 -0.366397,-0.251091 -0.109611,-0.102483 -0.203967,-0.218903 -0.283201,-0.349384 -0.215588,-0.355164 -0.374528,-0.729205 -0.476708,-1.122387 -0.01178,-0.04346 -0.02793,-0.04526 -0.0483,-0.0052 -0.206611,0.402179 -0.334262,0.827438 -0.383083,1.275785 -0.01893,0.17255 0.01008,0.341472 0.08713,0.506498 0.02774,0.06003 0.01476,0.07073 -0.03895,0.03198 -0.144196,-0.105309 -0.223587,-0.256744 -0.238036,-0.454187 -0.01404,-0.190219 -0.0066,-0.379589 0.02248,-0.568113 0.02608,-0.16972 0.04149,-0.340516 0.04636,-0.512267 6.46e-4,-0.02061 -0.01021,-0.03837 -0.02612,-0.04291 -0.02762,-0.0078 -0.04457,0.01043 -0.05099,0.05466 -0.01999,0.140256 -0.05377,0.276895 -0.101331,0.410175 -0.06055,0.168832 -0.106291,0.341092 -0.137337,0.516789 -0.0341,0.192564 -0.04283,0.369322 -0.02642,0.530676 0.05507,0.534462 0.334303,0.930141 0.837434,1.187055 0.166188,0.08465 0.471242,0.201266 0.915039,0.349995 0.102525,0.03468 0.17413,0.0741 0.214671,0.117999 0.05349,0.05779 0.09437,0.132726 0.122246,0.224709 0.13238,0.43275 0.329158,0.901056 0.590067,1.404803 0.553168,1.067315 1.167421,2.098159 1.842619,3.092412 0.537081,0.790892 0.980962,1.663432 1.331499,2.617369 0.849702,2.312266 1.863154,4.620669 3.039968,6.925228 1.191066,2.33222 2.295009,4.704978 3.311837,7.118403 0.253014,0.599444 0.519717,1.186982 0.800108,1.762611 0.01204,0.02507 0.03519,0.04304 0.0623,0.04875 0.126716,0.02542 0.183438,0.0033 0.170932,-0.06652 z m -14.56942,-8.09013 c 0.01798,0.018 0.02847,0.01585 0.0312,-0.0067 0.0023,-0.01592 -0.0012,-0.03254 -0.01072,-0.04986 -0.295279,-0.530136 -0.572587,-1.069705 -0.832039,-1.618441 -0.314389,-0.666102 -0.649529,-1.321577 -1.005668,-1.966284 -0.169911,-0.307415 -0.414803,-0.638528 -0.734549,-0.99334 -0.04806,-0.05318 -0.24987,-0.270652 -0.605693,-0.652276 -0.202445,-0.217178 -0.409807,-0.429807 -0.62183,-0.637899 -0.02536,-0.02496 -0.02932,-0.02409 -0.01203,0.0025 0.127881,0.196307 0.255519,0.392886 0.382678,0.59014 0.125507,0.195535 0.237817,0.400231 0.337181,0.613947 0.107232,0.231514 0.214207,0.463045 0.321053,0.694581 0.07761,0.167845 0.179128,0.401366 0.304298,0.700323 0.160507,0.383399 0.314015,0.716465 0.460522,0.999199 0.249973,0.482108 0.586172,0.932918 1.008465,1.352439 0.326001,0.323658 0.651758,0.647588 0.977135,0.97167 z M 52.167609,55.089106 c 0.0299,0.05473 0.0233,0.05937 -0.01991,0.01394 C 51.823688,54.759734 51.48038,54.425283 51.117646,54.0997 50.910934,53.914471 50.403948,53.391439 49.596824,52.530729 49.378865,52.297866 49.22346,52.093158 49.130744,51.916725 48.936093,51.545102 48.82039,51.134829 48.783513,50.686041 48.716003,49.86201 48.63085,49.25355 48.52779,48.860806 c -0.100922,-0.384712 -0.252554,-0.71439 -0.455163,-0.989149 -0.0478,-0.06458 -0.200211,-0.248494 -0.45711,-0.551746 -0.13994,-0.164821 -0.26225,-0.376974 -0.366938,-0.636588 -0.09341,-0.231911 -0.102638,-0.503806 -0.02744,-0.815824 0.07253,-0.299703 0.210756,-0.650501 0.414529,-1.052518 0.213997,-0.422529 0.409156,-0.853175 0.585204,-1.292182 0.188645,-0.470136 0.27635,-0.985788 0.263116,-1.546955 -0.0041,-0.172922 -0.02682,-0.301306 -0.06809,-0.385412 -0.07099,-0.144795 -0.190159,-0.221888 -0.357386,-0.231414 -0.07115,-0.0041 -0.192007,0.01673 -0.362564,0.06252 -0.118654,0.03223 -0.237698,0.06216 -0.357398,0.08966 -0.294964,0.06787 -0.588805,0.08715 -0.881645,0.05797 -0.298023,-0.02928 -0.577249,-0.108149 -0.837544,-0.236499 -0.506304,-0.248969 -0.876527,-0.649447 -1.110662,-1.201303 -0.02245,-0.05347 -0.0131,-0.05969 0.02819,-0.01868 0.193682,0.190498 0.404458,0.358414 0.632572,0.503473 0.371003,0.236466 0.778182,0.348837 1.22156,0.337504 0.540388,-0.01451 1.014275,-0.195042 1.421526,-0.541708 0.386001,-0.328894 0.597291,-0.748939 0.633865,-1.260263 0.01883,-0.260934 -0.03925,-0.50197 -0.174228,-0.72298 -0.04028,-0.06669 -0.09068,-0.122324 -0.151203,-0.167157 -0.0524,-0.03844 -0.120146,-0.06694 -0.203135,-0.08578 -0.182784,-0.0419 -0.369565,-0.04708 -0.560342,-0.01554 -0.122053,0.02026 -0.209001,0.08667 -0.260594,0.199086 -0.0076,0.017 -0.01059,0.01626 -0.0093,-0.0024 0.02074,-0.254571 0.07952,-0.491116 0.176223,-0.709365 0.320111,-0.725691 0.731202,-1.410347 1.233538,-2.053855 0.0016,-0.0018 0.02734,-0.03365 0.07726,-0.09563 0.286454,-0.354429 0.444395,-0.761349 0.473822,-1.220761 0.02273,-0.356405 -0.14186,-0.513096 -0.493754,-0.470075 -0.170666,0.02108 -0.362655,0.08142 -0.575961,0.18115 -0.546597,0.256095 -1.082705,0.532819 -1.608317,0.8303 -0.110324,0.06269 -0.127352,0.05227 -0.05108,-0.03114 0.0084,-0.009 0.01801,-0.01785 0.0289,-0.02662 0.235004,-0.189351 0.471007,-0.377076 0.70813,-0.563312 0.121544,-0.09529 0.364868,-0.268033 0.730103,-0.518229 0.174013,-0.119367 0.34285,-0.245558 0.506389,-0.378438 0.248786,-0.20191 0.406585,-0.340157 0.473262,-0.414862 0.267192,-0.299371 0.3666,-0.670483 0.298088,-1.11346 -0.03223,-0.209763 -0.108262,-0.356731 -0.228213,-0.440768 -0.106322,-0.0742 -0.222324,-0.07046 -0.347877,0.01121 -0.03072,0.01973 -0.07173,0.0108 -0.09146,-0.01991 -0.0017,-0.0026 -0.0031,-0.0053 -0.0045,-0.008 -0.220038,-0.476821 -0.203462,-0.884513 0.04974,-1.222818 0.1191,-0.158826 0.311762,-0.300736 0.577858,-0.425721 0.214939,-0.100598 0.442747,-0.186525 0.683552,-0.257792 0.08133,-0.02403 0.15932,-0.06133 0.233846,-0.111765 0.06644,-0.04467 0.127116,-0.104281 0.182024,-0.178836 0.219636,-0.295891 0.29509,-0.621643 0.226615,-0.977397 -0.05695,-0.296361 -0.206965,-0.499564 -0.450029,-0.60935 -0.170134,-0.07666 -0.399693,-0.103609 -0.6888,-0.08072 -0.335889,0.02632 -0.659168,0.112885 -0.969853,0.259427 -0.01778,0.0083 -0.02991,0.0088 -0.03641,0.0014 -0.0074,-0.0088 -0.0018,-0.02513 0.01229,-0.03655 2.46e-4,-2.59e-4 6.2e-4,-3.88e-4 8.66e-4,-6.46e-4 0.411422,-0.32335 0.841863,-0.619437 1.291195,-0.888256 0.139669,-0.08377 0.383545,-0.274141 0.732009,-0.571267 0.304767,-0.259833 0.550547,-0.446301 0.737598,-0.55942 0.276242,-0.167364 0.57254,-0.316582 0.888633,-0.447643 0.208728,-0.08691 0.422866,-0.208432 0.642137,-0.364924 0.546762,-0.389919 0.708329,-0.901612 0.48508,-1.53523 -0.08549,-0.242845 -0.2699,-0.372657 -0.553106,-0.389444 -0.533284,-0.03131 -1.042196,0.06346 -1.526733,0.284324 -0.0921,0.04173 -0.104129,0.0305 -0.03596,-0.03381 0.0081,-0.0073 0.01705,-0.0143 0.02676,-0.02093 0.290301,-0.193268 0.584278,-0.38105 0.882061,-0.563354 0.836132,-0.512991 1.74637,-0.783009 2.730845,-0.810061 0.461,-0.01324 0.929836,-0.01839 1.406379,-0.01543 0.02253,2.58e-4 0.04092,-0.01785 0.04107,-0.04025 4.9e-5,-0.006 -0.0012,-0.01184 -0.0037,-0.01726 -0.07377,-0.16405 -0.13196,-0.329631 -0.174839,-0.496729 -0.04423,-0.172587 -0.06262,-0.345992 -0.05502,-0.519839 0.01416,-0.3158 0.08452,-0.614991 0.211096,-0.897445 0.111923,-0.24875 0.291857,-0.489456 0.539801,-0.72212 0.408797,-0.383248 0.873794,-0.688417 1.394862,-0.915496 0.05733,-0.02513 0.115497,-0.0582 0.174375,-0.09933 0.0686,-0.04764 0.12738,-0.08139 0.176078,-0.101238 0.08134,-0.03296 0.09208,-0.01714 0.03246,0.04746 -0.371224,0.402209 -0.633871,0.847688 -0.787684,1.336422 -0.107812,0.343896 -0.03347,0.545444 0.222898,0.60465 0.139676,0.03257 0.310695,0.01316 0.513048,-0.05839 0.384419,-0.135718 0.719273,-0.355716 1.004966,-0.65976 0.311545,-0.331913 0.571844,-0.700257 0.780767,-1.105025 0.108057,-0.209706 0.216638,-0.419313 0.32547,-0.629064 0.322784,-0.621663 0.782119,-1.117655 1.378137,-1.487983 0.05364,-0.03307 0.06109,-0.02495 0.02208,0.02424 -0.110027,0.14084 -0.197578,0.294639 -0.262657,0.461268 -0.07256,0.185301 -0.09171,0.35631 -0.05719,0.512884 0.04427,0.200666 0.153051,0.352374 0.326356,0.455251 0.147699,0.08725 0.317784,0.11292 0.510377,0.07688 0.349102,-0.06486 0.638157,-0.261812 0.867156,-0.591108 0.319772,-0.460499 0.661641,-0.90336 1.025856,-1.328725 0.04441,-0.05196 0.05472,-0.0506 0.03066,0.0043 -0.07681,0.174284 -0.161193,0.345116 -0.253019,0.512487 -0.05287,0.0967 -0.07709,0.173912 -0.07265,0.231637 0.0076,0.09042 0.0532,0.166511 0.137065,0.228139 0.07063,0.0519 0.147421,0.08688 0.230366,0.104943 0.06695,0.01444 0.149199,0.0134 0.246752,-0.003 0.32043,-0.05469 0.614761,-0.177011 0.882863,-0.366947 0.350808,-0.248988 0.649673,-0.576298 0.896587,-0.982059 0.124677,-0.204179 0.299334,-0.412491 0.523953,-0.625194 0.292434,-0.276473 0.58639,-0.551221 0.881869,-0.824243 0.07673,-0.07088 0.141168,-0.146232 0.193303,-0.226324 0.01788,-0.02703 0.02903,-0.0243 0.03332,0.0078 0.06604,0.499802 0.180527,0.972911 0.343327,1.419463 0.0073,0.02068 0.01744,0.02218 0.03066,0.0043 0.299252,-0.41391 0.598935,-0.81568 0.899178,-1.205317 0.13789,-0.178917 0.284761,-0.350062 0.441003,-0.513457 0.346632,-0.363541 0.764675,-0.60677 1.253863,-0.729802 0.217017,-0.0549 0.347744,-0.0842 0.392183,-0.08789 0.07625,-0.0064 0.07637,0.0071 5.17e-4,0.04009 -0.309869,0.133555 -0.521172,0.357407 -0.63391,0.671558 -0.08717,0.242556 -0.148417,0.499428 -0.183617,0.77061 -0.0057,0.04329 0.0057,0.04833 0.03425,0.01514 0.05966,-0.07068 0.12839,-0.134247 0.206335,-0.190569 0.06042,-0.04355 0.142574,-0.0873 0.246708,-0.131391 0.326177,-0.138103 0.659377,-0.257323 0.999597,-0.357789 0.410769,-0.120648 0.658063,-0.196165 0.741888,-0.22642 0.293993,-0.105476 0.532158,-0.207263 0.714253,-0.305089 0.205831,-0.110563 0.398639,-0.240833 0.578698,-0.390439 0.03027,-0.02527 0.03758,-0.01973 0.02228,0.01633 -0.247312,0.571952 -0.530301,1.126389 -0.849348,1.663462 -0.265649,0.447332 -0.484695,0.860699 -0.656874,1.240216 -0.102755,0.225581 -0.164361,0.478462 -0.18495,0.75852 -0.02584,0.344933 -0.02515,0.691856 0.0019,1.041032 0.0024,0.03041 -0.02005,0.05705 -0.05007,0.05953 -0.0014,8.2e-5 -0.0028,1.29e-4 -0.0044,1.2e-4 -0.169859,0.0012 -0.322102,0.01389 -0.456999,0.03812 -1.066222,0.189581 -2.109802,0.426924 -3.132105,0.708483 -0.698625,0.245318 -1.38309,0.523479 -2.050376,0.835218 -1.730552,0.801782 -3.341408,1.828936 -4.816579,3.009764 -0.736519,0.5921 -1.440552,1.222992 -2.106387,1.892999 -0.665303,0.670234 -1.293767,1.376165 -1.888985,2.109197 -0.593863,0.734119 -1.154738,1.495354 -1.678707,2.282059 -0.521945,0.788143 -1.009711,1.599322 -1.462972,2.430152 -1.820204,3.322566 -3.063656,6.95416 -3.795523,10.695303 -0.439801,2.259581 -0.671985,4.560819 -0.72152,6.881061 0.02387,0.620869 0.05871,1.209281 0.105745,1.761669 0.05173,0.603241 0.157177,1.222583 0.316605,1.858143 0.249943,0.996535 0.673996,1.911872 1.2719,2.746029 0.139783,0.193948 0.267134,0.396885 0.38245,0.608917 z M 68.70555,16.30875 c -0.01149,0.01657 -0.0253,0.03081 -0.04807,0.03094 0.02736,0.01682 0.0643,-3.88e-4 0.08948,-0.01492 l 0.02516,-0.01722 c 0.247131,-0.01003 0.494106,-0.09342 0.710867,-0.228024 0.119763,-0.07423 0.23172,-0.167422 0.328299,-0.269321 0.09674,-0.101391 0.180269,-0.207466 0.261807,-0.307605 0.159046,-0.202896 0.328691,-0.364981 0.539306,-0.514381 0.206185,-0.149925 0.436661,-0.280005 0.662222,-0.432842 -0.269431,0.03665 -0.531893,0.109409 -0.782399,0.230921 -0.12494,0.06054 -0.244881,0.136205 -0.356133,0.225866 -0.112147,0.08984 -0.209465,0.196959 -0.294603,0.302091 -0.1712,0.214457 -0.308305,0.414036 -0.497824,0.577121 -0.123911,0.110569 -0.262748,0.206715 -0.413265,0.29317 0.0082,-0.0078 0.01687,-0.01519 0.02509,-0.02316 0.08669,-0.08231 0.157641,-0.17978 0.21972,-0.280756 0.12394,-0.20349 0.2035,-0.425037 0.267522,-0.642207 0.06384,-0.218066 0.112015,-0.433948 0.165048,-0.646353 0.05312,-0.213057 0.112413,-0.420123 0.197943,-0.636833 -0.186541,0.142598 -0.319051,0.347869 -0.418616,0.556705 -0.100116,0.210549 -0.168191,0.429244 -0.230755,0.642449 -0.06241,0.213584 -0.118746,0.422553 -0.191566,0.623787 -0.03648,0.100557 -0.07637,0.200271 -0.126435,0.296293 l -0.03643,0.07402 -0.04284,0.07063 -0.04321,0.07324 c -0.0015,0.0025 -0.0032,0.005 -0.0049,0.0075 -0.0063,0.0029 -0.01207,0.0063 -0.01837,0.0092 0.0045,2e-6 0.0086,-5.17e-4 0.01292,-3.87e-4 z m -2.142329,0.355522 c 0.07155,-0.166608 0.127017,-0.324797 0.186025,-0.479823 0.0585,-0.154867 0.116546,-0.306343 0.178148,-0.456728 0.06134,-0.150369 0.126273,-0.299131 0.193386,-0.450475 0.06682,-0.151975 0.138444,-0.303575 0.204712,-0.472084 -0.159274,0.08721 -0.291112,0.210914 -0.403614,0.349177 -0.112216,0.138765 -0.202472,0.295047 -0.270477,0.460289 -0.06775,0.165228 -0.113344,0.339939 -0.13082,0.517583 -0.01711,0.177363 -0.0099,0.358008 0.04264,0.532061 z m -5.322771,3.168315 c 0.295974,-0.549091 0.772231,-0.883888 1.263135,-1.236469 0.245376,-0.177645 0.49609,-0.361547 0.717564,-0.590895 0.109082,-0.116457 0.210626,-0.244908 0.281068,-0.392301 0.06934,-0.146294 0.109903,-0.31166 0.08503,-0.466969 -0.08285,0.302619 -0.296988,0.506183 -0.52422,0.686552 -0.232215,0.179227 -0.485407,0.342304 -0.734177,0.521695 -0.248012,0.17909 -0.497246,0.377661 -0.700256,0.624466 -0.200844,0.243965 -0.361028,0.540751 -0.388148,0.853921 z m -0.965248,0.367874 c 0.07265,-0.202001 0.16274,-0.374839 0.260885,-0.549428 0.09792,-0.17393 0.202026,-0.34847 0.292239,-0.539692 0.09036,-0.193171 0.160833,-0.403849 0.177565,-0.626486 0.01756,-0.219449 -0.02653,-0.460374 -0.167988,-0.626792 0.02404,0.213722 -0.0074,0.402384 -0.06235,0.586166 -0.05559,0.183303 -0.132977,0.361114 -0.217293,0.539964 -0.08509,0.181225 -0.175832,0.369888 -0.238313,0.575453 -0.06194,0.203594 -0.09735,0.430139 -0.04475,0.640815 z m -3.657265,0.843005 c 0.07249,0.1803 0.181557,0.348426 0.323996,0.482047 0.141628,0.133018 0.3165,0.233866 0.505468,0.263899 -0.129064,-0.139686 -0.236041,-0.273249 -0.326293,-0.415397 -0.08996,-0.141646 -0.164432,-0.288444 -0.226473,-0.442031 -0.06203,-0.153455 -0.110824,-0.312971 -0.150791,-0.478939 -0.04026,-0.166601 -0.06787,-0.338189 -0.09665,-0.526018 -0.0933,0.16655 -0.132744,0.358382 -0.135969,0.54997 -0.0027,0.192074 0.03434,0.385905 0.106714,0.566469 z m -2.792003,1.877454 c 0.183615,-0.02777 0.350413,-0.0463 0.515655,-0.04896 0.164581,-0.0029 0.325237,0.0072 0.484225,0.03112 0.158988,0.02397 0.315393,0.06168 0.471899,0.112579 0.157036,0.05113 0.311061,0.117572 0.478675,0.197737 -0.07999,-0.168872 -0.217606,-0.30639 -0.375995,-0.408691 -0.159186,-0.102644 -0.342172,-0.168607 -0.530256,-0.196749 -0.188077,-0.02801 -0.38243,-0.0184 -0.564576,0.03297 -0.181629,0.05134 -0.353369,0.142365 -0.479627,0.279986 z m -3.041926,3.968882 c 0.285948,-0.160538 0.554942,-0.341595 0.838999,-0.448835 0.141218,-0.05422 0.284408,-0.08966 0.427244,-0.09945 0.143473,-0.01 0.297526,0.0046 0.46328,0.01096 0.339319,0.01813 0.693472,-0.05349 0.996379,-0.211626 0.03571,-0.01846 0.0708,-0.03858 0.105327,-0.05956 -0.112703,0.109675 -0.22975,0.213513 -0.351764,0.311938 -0.266205,0.216488 -0.552404,0.411334 -0.837243,0.616457 -0.284597,0.204849 -0.57088,0.418725 -0.830688,0.668109 -0.128399,0.127259 -0.250235,0.258417 -0.360076,0.404811 -0.05265,0.07559 -0.102986,0.155453 -0.134971,0.243977 -0.03255,0.08778 -0.04465,0.184622 -0.02543,0.272309 0.02867,-0.178797 0.144741,-0.306651 0.269726,-0.418833 0.129278,-0.11178 0.266151,-0.219721 0.403137,-0.323397 0.277162,-0.205851 0.566331,-0.398536 0.852667,-0.60465 0.285426,-0.206191 0.571346,-0.424186 0.821613,-0.686618 0.205101,-0.21457 0.386813,-0.460426 0.506162,-0.73108 0.116362,-0.118164 0.211926,-0.253912 0.275135,-0.403353 -0.232315,0.232164 -0.501011,0.393404 -0.787864,0.494722 -0.288013,0.101382 -0.586089,0.144064 -0.890968,0.128508 -0.156249,-0.0054 -0.325436,-0.01749 -0.503345,0.0059 -0.177994,0.02422 -0.347533,0.08561 -0.497453,0.168926 -0.302163,0.168964 -0.533747,0.407169 -0.739867,0.660751 z m -1.205795,6.293068 c 0.255427,-0.203452 0.466494,-0.456538 0.656515,-0.717877 0.189561,-0.262607 0.356309,-0.537247 0.519454,-0.809226 0.16326,-0.272241 0.322487,-0.542574 0.495452,-0.803461 0.172526,-0.261768 0.360906,-0.510979 0.576908,-0.754639 -0.292898,0.145272 -0.545623,0.366689 -0.762871,0.611197 -0.217554,0.245949 -0.40013,0.517607 -0.565371,0.793715 -0.16534,0.276631 -0.314082,0.558403 -0.462253,0.838847 -0.147746,0.281068 -0.29739,0.558361 -0.457834,0.841444 z m -0.430204,3.422087 c 0.119594,-0.136467 0.238119,-0.273519 0.354947,-0.415391 0.11654,-0.142376 0.233523,-0.28607 0.341344,-0.44982 -0.184801,0.06614 -0.349578,0.165833 -0.502814,0.279621 -0.153084,0.114167 -0.292372,0.245668 -0.417913,0.389072 -0.125275,0.143519 -0.237184,0.299088 -0.330208,0.465881 -0.09249,0.167021 -0.169701,0.343398 -0.211227,0.53509 0.147734,-0.128616 0.27479,-0.263564 0.400594,-0.397794 0.125257,-0.134717 0.245547,-0.270315 0.365277,-0.406659 z"
     id="path1" /></g>
<rect
   style="opacity:1;fill:none;fill-opacity:1;stroke:none;stroke-width:0.566929;stroke-linejoin:round;paint-order:fill markers stroke"
   id="rect84"
   width="68.076355"
   height="68.076355"
   x="35.11282"
   y="1.882356"
   rx="0"
   ry="68.076355" /></g></g></svg>
