<?xml version="1.0" encoding="UTF-8" standalone="no"?>
<!-- Uploaded to: SVG Repo, www.svgrepo.com, Generator: SVG Repo Mixer Tools -->

<svg
   width="24"
   height="24"
   viewBox="0 0 1.92 1.92"
   stroke-width="3"
   stroke="#000000"
   fill="none"
   version="1.1"
   id="svg2"
   sodipodi:docname="save.svg"
   inkscape:export-filename="save.png"
   inkscape:export-xdpi="96"
   inkscape:export-ydpi="96"
   xmlns:inkscape="http://www.inkscape.org/namespaces/inkscape"
   xmlns:sodipodi="http://sodipodi.sourceforge.net/DTD/sodipodi-0.dtd"
   xmlns="http://www.w3.org/2000/svg"
   xmlns:svg="http://www.w3.org/2000/svg">
  <defs
     id="defs2" />
  <sodipodi:namedview
     id="namedview2"
     pagecolor="#ffffff"
     bordercolor="#666666"
     borderopacity="1.0"
     inkscape:showpageshadow="2"
     inkscape:pageopacity="0.0"
     inkscape:pagecheckerboard="0"
     inkscape:deskcolor="#d1d1d1" />
  <g
     id="g1">
    <path
       style="color:#000000;fill:#000000;stroke:none;stroke-width:3;stroke-linecap:round;-inkscape-stroke:none"
       d="m 0.43085533,0.32 c -0.06072,0 -0.11085534,0.0501333 -0.11085534,0.11085534 V 1.6 H 1.4891447 C 1.5498647,1.6 1.6,1.5498667 1.6,1.4891447 V 0.52093134 L 1.3674113,0.32 Z m 0,0.0835493 H 1.336298 L 1.5164507,0.55917067 V 1.4891447 c 0,0.015567 -0.01174,0.027307 -0.027307,0.027307 H 0.40354933 V 0.43085534 c 0,-0.0155667 0.01174,-0.0273067 0.027306,-0.027306 z"
       id="path1" />
    <path
       style="color:#000000;fill:#000000;stroke:none;stroke-width:3;stroke-linecap:round;-inkscape-stroke:none"
       d="M 0.62580333,0.32 V 0.83522001 H 1.2944687 V 0.32 Z m 0.0835493,0.0835493 H 1.2109193 V 0.75167067 H 0.70935266 Z"
       id="rect1" />
    <path
       style="color:#000000;fill:#000000;stroke:none;stroke-width:3;stroke-linecap:round;-inkscape-stroke:none"
       d="M 0.52441267,1.0424613 V 1.6 H 1.3955873 V 1.0424613 Z m 0.0835493,0.083549 H 1.312038 v 0.39044 H 0.60796201 Z"
       id="rect2" />
  </g>
</svg>
