<?xml version="1.0" encoding="UTF-8" standalone="no"?>
<!-- Uploaded to: SVG Repo, www.svgrepo.com, Generator: SVG Repo Mixer Tools -->

<svg
   width="24"
   height="24"
   viewBox="0 0 1.92 1.92"
   stroke-width="3"
   stroke="#000000"
   fill="none"
   version="1.1"
   id="svg1"
   sodipodi:docname="download.svg"
   inkscape:export-filename="download.svg"
   inkscape:export-xdpi="96"
   inkscape:export-ydpi="96"
   xmlns:inkscape="http://www.inkscape.org/namespaces/inkscape"
   xmlns:sodipodi="http://sodipodi.sourceforge.net/DTD/sodipodi-0.dtd"
   xmlns="http://www.w3.org/2000/svg"
   xmlns:svg="http://www.w3.org/2000/svg">
  <defs
     id="defs1" />
  <sodipodi:namedview
     id="namedview1"
     pagecolor="#ffffff"
     bordercolor="#666666"
     borderopacity="1.0"
     inkscape:showpageshadow="2"
     inkscape:pageopacity="0.0"
     inkscape:pagecheckerboard="0"
     inkscape:deskcolor="#d1d1d1"
     inkscape:zoom="12.40625"
     inkscape:cx="16.36272"
     inkscape:cy="18.297229"
     inkscape:window-width="1920"
     inkscape:window-height="1017"
     inkscape:window-x="1912"
     inkscape:window-y="-8"
     inkscape:window-maximized="1"
     inkscape:current-layer="svg1" />
  <path
     style="color:#000000;fill:#000000;stroke:none;stroke-width:3;-inkscape-stroke:none"
     d="m 0.38643495,1.00793 v 0.4992918 1.528e-4 c 4.83e-4,0.051012 0.042926,0.092869 0.0939397,0.092624 H 1.4839158 c 0.051013,2.43e-4 0.093457,-0.041613 0.093939,-0.092625 V 1.5072208 1.007929 h -0.077701 v 0.4987353 c -8.53e-5,0.00915 -0.00673,0.015675 -0.015887,0.015631 H 1.484168 0.48012156 0.48002049 c -0.009151,4.48e-5 -0.015798,-0.00648 -0.0158847,-0.01563 V 1.00793 Z"
     id="path1" />
  <path
     style="color:#000000;fill:#000000;stroke:none;stroke-width:3;-inkscape-stroke:none"
     d="M 0.73477572,0.6769407 0.67988905,0.6219527 0.98214518,0.3200001 1.2844011,0.6219527 1.2295144,0.6769407 0.98214518,0.4298242 Z"
     id="polyline1" />
  <path
     style="color:#000000;fill:#000000;stroke:none;stroke-width:3;-inkscape-stroke:none"
     d="M 0.94329444,1.3821714 V 0.374887 h 0.0777015 v 1.0072844 z"
     id="line1" />
</svg>
