<?xml version="1.0" encoding="UTF-8" standalone="no"?>
<!-- Uploaded to: SVG Repo, www.svgrepo.com, Generator: SVG Repo Mixer Tools -->

<svg
   width="32"
   height="32"
   viewBox="0 0 2.56 2.56"
   stroke-width="3"
   stroke="#000000"
   fill="none"
   version="1.1"
   id="svg2"
   sodipodi:docname="trash.svg"
   inkscape:export-filename="save.svg"
   inkscape:export-xdpi="96"
   inkscape:export-ydpi="96"
   xml:space="preserve"
   inkscape:version="1.3.2 (091e20e, 2023-11-25, custom)"
   xmlns:inkscape="http://www.inkscape.org/namespaces/inkscape"
   xmlns:sodipodi="http://sodipodi.sourceforge.net/DTD/sodipodi-0.dtd"
   xmlns="http://www.w3.org/2000/svg"
   xmlns:svg="http://www.w3.org/2000/svg"><defs
     id="defs2" /><sodipodi:namedview
     id="namedview2"
     pagecolor="#ffffff"
     bordercolor="#666666"
     borderopacity="1.0"
     inkscape:showpageshadow="2"
     inkscape:pageopacity="0.0"
     inkscape:pagecheckerboard="0"
     inkscape:deskcolor="#d1d1d1"
     inkscape:zoom="24.8125"
     inkscape:cx="16"
     inkscape:cy="16"
     inkscape:window-width="1920"
     inkscape:window-height="1017"
     inkscape:window-x="1912"
     inkscape:window-y="-8"
     inkscape:window-maximized="1"
     inkscape:current-layer="svg2" /><g
     style="fill:#f9f9f9;stroke:#000000;stroke-width:3"
     id="g2"
     transform="translate(-3.9272844,-25.145991)"><path
       style="color:#000000;fill:#f9f9f9;stroke:none;stroke-width:3;-inkscape-stroke:none"
       d="m 4.5300094,25.888879 0.07815,1.406684 -7.5e-5,-0.0031 c 0,0.05101 0.04256,0.09357 0.09357,0.09357 h 1.011354 c 0.04997,-0.0015 0.09169,-0.04358 0.09167,-0.09357 l 0.078,-1.40354 z m 0.118716,0.112284 h 1.115303 l -0.07069,1.272543 h -0.973926 z"
       id="path1-3" /><path
       style="color:#000000;fill:#f9f9f9;stroke:none;stroke-width:3;-inkscape-stroke:none"
       d="m 4.5309594,25.701375 0.0054,2.92e-4 c -0.03237,-0.0031 -0.06349,0.01557 -0.07595,0.04561 l -0.002,0.0048 -0.037102,0.173617 v 0.0059 c 0,0.02522 0.01476,0.04489 0.02909,0.05504 0.01434,0.01016 0.02983,0.01418 0.04576,0.01418 h 1.422254 c 0.01593,0 0.03142,-0.004 0.04576,-0.01418 0.01434,-0.01016 0.02909,-0.02982 0.02909,-0.05504 v -0.0059 l -0.03714,-0.173615 -0.002,-0.0047 c -0.01246,-0.03004 -0.04358,-0.04876 -0.07595,-0.04562 l 0.0054,-2.92e-4 z m 0.02909,0.112283 h 1.294474 l 0.01601,0.07485 h -1.326492 z"
       id="path2" /><path
       style="color:#000000;fill:#f9f9f9;stroke:none;stroke-width:3;-inkscape-stroke:none"
       d="m 4.9317644,26.153505 v 0.935694 h 0.112284 v -0.935694 z"
       id="line2-3" /><path
       style="color:#000000;fill:#f9f9f9;stroke:none;stroke-width:3;-inkscape-stroke:none"
       d="m 5.3705644,26.153505 v 0.935694 h 0.112284 v -0.935694 z"
       id="line4" /><path
       style="color:#000000;fill:#f9f9f9;stroke:none;stroke-width:3;-inkscape-stroke:none"
       d="m 5.0100634,25.46599 c -0.05101,0 -0.09357,0.04256 -0.09357,0.09357 v 0.197958 h 0.112284 v -0.179244 h 0.357026 v 0.179244 h 0.112283 V 25.55956 c 0,-0.05101 -0.04256,-0.09357 -0.09357,-0.09357 z"
       id="path4" /></g></svg>
